<?xml version="1.0" encoding="utf-8"?>
<svg xmlns="http://www.w3.org/2000/svg"
    xmlns:xlink="http://www.w3.org/1999/xlink"
    width="620" height="620" viewBox="-10 -10 620 620">
<defs>
<style type="text/css"><![CDATA[
line {
    stroke: #000000;
    stroke-linecap: square;
    stroke-width: 5;
}
]]></style>
</defs>
<line x1="20.0" y1="0.0" x2="20.0" y2="20.0"/>
<line x1="20.0" y1="20.0" x2="20.0" y2="40.0"/>
<line x1="20.0" y1="40.0" x2="20.0" y2="60.0"/>
<line x1="20.0" y1="60.0" x2="20.0" y2="80.0"/>
<line x1="20.0" y1="80.0" x2="20.0" y2="100.0"/>
<line x1="20.0" y1="100.0" x2="20.0" y2="120.0"/>
<line x1="0.0" y1="140.0" x2="20.0" y2="140.0"/>
<line x1="20.0" y1="160.0" x2="20.0" y2="180.0"/>
<line x1="20.0" y1="180.0" x2="20.0" y2="200.0"/>
<line x1="20.0" y1="200.0" x2="20.0" y2="220.0"/>
<line x1="20.0" y1="240.0" x2="20.0" y2="260.0"/>
<line x1="0.0" y1="280.0" x2="20.0" y2="280.0"/>
<line x1="0.0" y1="320.0" x2="20.0" y2="320.0"/>
<line x1="20.0" y1="320.0" x2="20.0" y2="340.0"/>
<line x1="20.0" y1="340.0" x2="20.0" y2="360.0"/>
<line x1="20.0" y1="380.0" x2="20.0" y2="400.0"/>
<line x1="0.0" y1="420.0" x2="20.0" y2="420.0"/>
<line x1="0.0" y1="480.0" x2="20.0" y2="480.0"/>
<line x1="20.0" y1="480.0" x2="20.0" y2="500.0"/>
<line x1="20.0" y1="500.0" x2="20.0" y2="520.0"/>
<line x1="20.0" y1="540.0" x2="20.0" y2="560.0"/>
<line x1="20.0" y1="560.0" x2="20.0" y2="580.0"/>
<line x1="0.0" y1="600.0" x2="20.0" y2="600.0"/>
<line x1="40.0" y1="40.0" x2="40.0" y2="60.0"/>
<line x1="40.0" y1="60.0" x2="40.0" y2="80.0"/>
<line x1="20.0" y1="100.0" x2="40.0" y2="100.0"/>
<line x1="40.0" y1="80.0" x2="40.0" y2="100.0"/>
<line x1="20.0" y1="140.0" x2="40.0" y2="140.0"/>
<line x1="40.0" y1="120.0" x2="40.0" y2="140.0"/>
<line x1="40.0" y1="140.0" x2="40.0" y2="160.0"/>
<line x1="20.0" y1="180.0" x2="40.0" y2="180.0"/>
<line x1="40.0" y1="200.0" x2="40.0" y2="220.0"/>
<line x1="20.0" y1="240.0" x2="40.0" y2="240.0"/>
<line x1="40.0" y1="240.0" x2="40.0" y2="260.0"/>
<line x1="40.0" y1="260.0" x2="40.0" y2="280.0"/>
<line x1="20.0" y1="300.0" x2="40.0" y2="300.0"/>
<line x1="40.0" y1="280.0" x2="40.0" y2="300.0"/>
<line x1="40.0" y1="300.0" x2="40.0" y2="320.0"/>
<line x1="40.0" y1="320.0" x2="40.0" y2="340.0"/>
<line x1="20.0" y1="360.0" x2="40.0" y2="360.0"/>
<line x1="20.0" y1="380.0" x2="40.0" y2="380.0"/>
<line x1="20.0" y1="420.0" x2="40.0" y2="420.0"/>
<line x1="40.0" y1="400.0" x2="40.0" y2="420.0"/>
<line x1="20.0" y1="440.0" x2="40.0" y2="440.0"/>
<line x1="20.0" y1="460.0" x2="40.0" y2="460.0"/>
<line x1="40.0" y1="460.0" x2="40.0" y2="480.0"/>
<line x1="40.0" y1="480.0" x2="40.0" y2="500.0"/>
<line x1="20.0" y1="520.0" x2="40.0" y2="520.0"/>
<line x1="20.0" y1="540.0" x2="40.0" y2="540.0"/>
<line x1="20.0" y1="560.0" x2="40.0" y2="560.0"/>
<line x1="20.0" y1="600.0" x2="40.0" y2="600.0"/>
<line x1="40.0" y1="580.0" x2="40.0" y2="600.0"/>
<line x1="40.0" y1="20.0" x2="60.0" y2="20.0"/>
<line x1="60.0" y1="0.0" x2="60.0" y2="20.0"/>
<line x1="40.0" y1="40.0" x2="60.0" y2="40.0"/>
<line x1="40.0" y1="80.0" x2="60.0" y2="80.0"/>
<line x1="40.0" y1="120.0" x2="60.0" y2="120.0"/>
<line x1="60.0" y1="100.0" x2="60.0" y2="120.0"/>
<line x1="40.0" y1="160.0" x2="60.0" y2="160.0"/>
<line x1="40.0" y1="180.0" x2="60.0" y2="180.0"/>
<line x1="60.0" y1="160.0" x2="60.0" y2="180.0"/>
<line x1="40.0" y1="200.0" x2="60.0" y2="200.0"/>
<line x1="60.0" y1="200.0" x2="60.0" y2="220.0"/>
<line x1="40.0" y1="240.0" x2="60.0" y2="240.0"/>
<line x1="60.0" y1="220.0" x2="60.0" y2="240.0"/>
<line x1="60.0" y1="260.0" x2="60.0" y2="280.0"/>
<line x1="40.0" y1="300.0" x2="60.0" y2="300.0"/>
<line x1="40.0" y1="340.0" x2="60.0" y2="340.0"/>
<line x1="40.0" y1="360.0" x2="60.0" y2="360.0"/>
<line x1="40.0" y1="380.0" x2="60.0" y2="380.0"/>
<line x1="60.0" y1="380.0" x2="60.0" y2="400.0"/>
<line x1="40.0" y1="420.0" x2="60.0" y2="420.0"/>
<line x1="40.0" y1="440.0" x2="60.0" y2="440.0"/>
<line x1="60.0" y1="420.0" x2="60.0" y2="440.0"/>
<line x1="40.0" y1="460.0" x2="60.0" y2="460.0"/>
<line x1="40.0" y1="500.0" x2="60.0" y2="500.0"/>
<line x1="60.0" y1="500.0" x2="60.0" y2="520.0"/>
<line x1="40.0" y1="540.0" x2="60.0" y2="540.0"/>
<line x1="60.0" y1="520.0" x2="60.0" y2="540.0"/>
<line x1="40.0" y1="580.0" x2="60.0" y2="580.0"/>
<line x1="60.0" y1="560.0" x2="60.0" y2="580.0"/>
<line x1="40.0" y1="600.0" x2="60.0" y2="600.0"/>
<line x1="60.0" y1="40.0" x2="80.0" y2="40.0"/>
<line x1="80.0" y1="20.0" x2="80.0" y2="40.0"/>
<line x1="60.0" y1="60.0" x2="80.0" y2="60.0"/>
<line x1="80.0" y1="60.0" x2="80.0" y2="80.0"/>
<line x1="60.0" y1="100.0" x2="80.0" y2="100.0"/>
<line x1="80.0" y1="80.0" x2="80.0" y2="100.0"/>
<line x1="80.0" y1="100.0" x2="80.0" y2="120.0"/>
<line x1="60.0" y1="140.0" x2="80.0" y2="140.0"/>
<line x1="80.0" y1="140.0" x2="80.0" y2="160.0"/>
<line x1="60.0" y1="180.0" x2="80.0" y2="180.0"/>
<line x1="80.0" y1="180.0" x2="80.0" y2="200.0"/>
<line x1="80.0" y1="200.0" x2="80.0" y2="220.0"/>
<line x1="80.0" y1="220.0" x2="80.0" y2="240.0"/>
<line x1="80.0" y1="240.0" x2="80.0" y2="260.0"/>
<line x1="60.0" y1="280.0" x2="80.0" y2="280.0"/>
<line x1="60.0" y1="300.0" x2="80.0" y2="300.0"/>
<line x1="60.0" y1="320.0" x2="80.0" y2="320.0"/>
<line x1="80.0" y1="300.0" x2="80.0" y2="320.0"/>
<line x1="80.0" y1="320.0" x2="80.0" y2="340.0"/>
<line x1="80.0" y1="340.0" x2="80.0" y2="360.0"/>
<line x1="60.0" y1="380.0" x2="80.0" y2="380.0"/>
<line x1="80.0" y1="360.0" x2="80.0" y2="380.0"/>
<line x1="60.0" y1="400.0" x2="80.0" y2="400.0"/>
<line x1="80.0" y1="400.0" x2="80.0" y2="420.0"/>
<line x1="80.0" y1="420.0" x2="80.0" y2="440.0"/>
<line x1="60.0" y1="460.0" x2="80.0" y2="460.0"/>
<line x1="80.0" y1="440.0" x2="80.0" y2="460.0"/>
<line x1="60.0" y1="480.0" x2="80.0" y2="480.0"/>
<line x1="60.0" y1="500.0" x2="80.0" y2="500.0"/>
<line x1="80.0" y1="480.0" x2="80.0" y2="500.0"/>
<line x1="60.0" y1="540.0" x2="80.0" y2="540.0"/>
<line x1="80.0" y1="540.0" x2="80.0" y2="560.0"/>
<line x1="60.0" y1="580.0" x2="80.0" y2="580.0"/>
<line x1="60.0" y1="600.0" x2="80.0" y2="600.0"/>
<line x1="100.0" y1="20.0" x2="100.0" y2="40.0"/>
<line x1="80.0" y1="60.0" x2="100.0" y2="60.0"/>
<line x1="100.0" y1="40.0" x2="100.0" y2="60.0"/>
<line x1="100.0" y1="100.0" x2="100.0" y2="120.0"/>
<line x1="80.0" y1="140.0" x2="100.0" y2="140.0"/>
<line x1="100.0" y1="120.0" x2="100.0" y2="140.0"/>
<line x1="100.0" y1="140.0" x2="100.0" y2="160.0"/>
<line x1="100.0" y1="160.0" x2="100.0" y2="180.0"/>
<line x1="80.0" y1="200.0" x2="100.0" y2="200.0"/>
<line x1="100.0" y1="220.0" x2="100.0" y2="240.0"/>
<line x1="80.0" y1="260.0" x2="100.0" y2="260.0"/>
<line x1="80.0" y1="280.0" x2="100.0" y2="280.0"/>
<line x1="100.0" y1="260.0" x2="100.0" y2="280.0"/>
<line x1="100.0" y1="280.0" x2="100.0" y2="300.0"/>
<line x1="100.0" y1="300.0" x2="100.0" y2="320.0"/>
<line x1="100.0" y1="320.0" x2="100.0" y2="340.0"/>
<line x1="100.0" y1="340.0" x2="100.0" y2="360.0"/>
<line x1="80.0" y1="380.0" x2="100.0" y2="380.0"/>
<line x1="80.0" y1="420.0" x2="100.0" y2="420.0"/>
<line x1="80.0" y1="480.0" x2="100.0" y2="480.0"/>
<line x1="100.0" y1="460.0" x2="100.0" y2="480.0"/>
<line x1="80.0" y1="520.0" x2="100.0" y2="520.0"/>
<line x1="100.0" y1="500.0" x2="100.0" y2="520.0"/>
<line x1="80.0" y1="560.0" x2="100.0" y2="560.0"/>
<line x1="100.0" y1="540.0" x2="100.0" y2="560.0"/>
<line x1="80.0" y1="580.0" x2="100.0" y2="580.0"/>
<line x1="80.0" y1="600.0" x2="100.0" y2="600.0"/>
<line x1="120.0" y1="0.0" x2="120.0" y2="20.0"/>
<line x1="120.0" y1="20.0" x2="120.0" y2="40.0"/>
<line x1="100.0" y1="60.0" x2="120.0" y2="60.0"/>
<line x1="100.0" y1="80.0" x2="120.0" y2="80.0"/>
<line x1="100.0" y1="100.0" x2="120.0" y2="100.0"/>
<line x1="120.0" y1="80.0" x2="120.0" y2="100.0"/>
<line x1="120.0" y1="120.0" x2="120.0" y2="140.0"/>
<line x1="120.0" y1="140.0" x2="120.0" y2="160.0"/>
<line x1="100.0" y1="180.0" x2="120.0" y2="180.0"/>
<line x1="100.0" y1="200.0" x2="120.0" y2="200.0"/>
<line x1="120.0" y1="200.0" x2="120.0" y2="220.0"/>
<line x1="100.0" y1="240.0" x2="120.0" y2="240.0"/>
<line x1="120.0" y1="240.0" x2="120.0" y2="260.0"/>
<line x1="120.0" y1="260.0" x2="120.0" y2="280.0"/>
<line x1="120.0" y1="280.0" x2="120.0" y2="300.0"/>
<line x1="120.0" y1="300.0" x2="120.0" y2="320.0"/>
<line x1="100.0" y1="340.0" x2="120.0" y2="340.0"/>
<line x1="100.0" y1="380.0" x2="120.0" y2="380.0"/>
<line x1="120.0" y1="360.0" x2="120.0" y2="380.0"/>
<line x1="100.0" y1="400.0" x2="120.0" y2="400.0"/>
<line x1="100.0" y1="420.0" x2="120.0" y2="420.0"/>
<line x1="100.0" y1="440.0" x2="120.0" y2="440.0"/>
<line x1="100.0" y1="460.0" x2="120.0" y2="460.0"/>
<line x1="100.0" y1="500.0" x2="120.0" y2="500.0"/>
<line x1="120.0" y1="480.0" x2="120.0" y2="500.0"/>
<line x1="100.0" y1="520.0" x2="120.0" y2="520.0"/>
<line x1="100.0" y1="540.0" x2="120.0" y2="540.0"/>
<line x1="100.0" y1="580.0" x2="120.0" y2="580.0"/>
<line x1="120.0" y1="560.0" x2="120.0" y2="580.0"/>
<line x1="100.0" y1="600.0" x2="120.0" y2="600.0"/>
<line x1="140.0" y1="20.0" x2="140.0" y2="40.0"/>
<line x1="120.0" y1="60.0" x2="140.0" y2="60.0"/>
<line x1="140.0" y1="40.0" x2="140.0" y2="60.0"/>
<line x1="140.0" y1="60.0" x2="140.0" y2="80.0"/>
<line x1="120.0" y1="100.0" x2="140.0" y2="100.0"/>
<line x1="140.0" y1="100.0" x2="140.0" y2="120.0"/>
<line x1="140.0" y1="120.0" x2="140.0" y2="140.0"/>
<line x1="120.0" y1="160.0" x2="140.0" y2="160.0"/>
<line x1="120.0" y1="180.0" x2="140.0" y2="180.0"/>
<line x1="140.0" y1="180.0" x2="140.0" y2="200.0"/>
<line x1="140.0" y1="200.0" x2="140.0" y2="220.0"/>
<line x1="120.0" y1="240.0" x2="140.0" y2="240.0"/>
<line x1="140.0" y1="220.0" x2="140.0" y2="240.0"/>
<line x1="140.0" y1="240.0" x2="140.0" y2="260.0"/>
<line x1="140.0" y1="260.0" x2="140.0" y2="280.0"/>
<line x1="140.0" y1="280.0" x2="140.0" y2="300.0"/>
<line x1="120.0" y1="320.0" x2="140.0" y2="320.0"/>
<line x1="140.0" y1="320.0" x2="140.0" y2="340.0"/>
<line x1="120.0" y1="360.0" x2="140.0" y2="360.0"/>
<line x1="140.0" y1="340.0" x2="140.0" y2="360.0"/>
<line x1="120.0" y1="400.0" x2="140.0" y2="400.0"/>
<line x1="120.0" y1="420.0" x2="140.0" y2="420.0"/>
<line x1="140.0" y1="400.0" x2="140.0" y2="420.0"/>
<line x1="120.0" y1="440.0" x2="140.0" y2="440.0"/>
<line x1="140.0" y1="440.0" x2="140.0" y2="460.0"/>
<line x1="120.0" y1="480.0" x2="140.0" y2="480.0"/>
<line x1="140.0" y1="460.0" x2="140.0" y2="480.0"/>
<line x1="140.0" y1="480.0" x2="140.0" y2="500.0"/>
<line x1="120.0" y1="520.0" x2="140.0" y2="520.0"/>
<line x1="120.0" y1="540.0" x2="140.0" y2="540.0"/>
<line x1="140.0" y1="540.0" x2="140.0" y2="560.0"/>
<line x1="140.0" y1="560.0" x2="140.0" y2="580.0"/>
<line x1="120.0" y1="600.0" x2="140.0" y2="600.0"/>
<line x1="160.0" y1="0.0" x2="160.0" y2="20.0"/>
<line x1="140.0" y1="40.0" x2="160.0" y2="40.0"/>
<line x1="140.0" y1="80.0" x2="160.0" y2="80.0"/>
<line x1="160.0" y1="80.0" x2="160.0" y2="100.0"/>
<line x1="140.0" y1="120.0" x2="160.0" y2="120.0"/>
<line x1="140.0" y1="160.0" x2="160.0" y2="160.0"/>
<line x1="160.0" y1="140.0" x2="160.0" y2="160.0"/>
<line x1="160.0" y1="160.0" x2="160.0" y2="180.0"/>
<line x1="140.0" y1="200.0" x2="160.0" y2="200.0"/>
<line x1="160.0" y1="220.0" x2="160.0" y2="240.0"/>
<line x1="160.0" y1="240.0" x2="160.0" y2="260.0"/>
<line x1="140.0" y1="280.0" x2="160.0" y2="280.0"/>
<line x1="160.0" y1="300.0" x2="160.0" y2="320.0"/>
<line x1="160.0" y1="320.0" x2="160.0" y2="340.0"/>
<line x1="140.0" y1="360.0" x2="160.0" y2="360.0"/>
<line x1="140.0" y1="380.0" x2="160.0" y2="380.0"/>
<line x1="160.0" y1="380.0" x2="160.0" y2="400.0"/>
<line x1="160.0" y1="400.0" x2="160.0" y2="420.0"/>
<line x1="140.0" y1="440.0" x2="160.0" y2="440.0"/>
<line x1="160.0" y1="420.0" x2="160.0" y2="440.0"/>
<line x1="160.0" y1="460.0" x2="160.0" y2="480.0"/>
<line x1="140.0" y1="520.0" x2="160.0" y2="520.0"/>
<line x1="160.0" y1="500.0" x2="160.0" y2="520.0"/>
<line x1="160.0" y1="520.0" x2="160.0" y2="540.0"/>
<line x1="160.0" y1="540.0" x2="160.0" y2="560.0"/>
<line x1="140.0" y1="580.0" x2="160.0" y2="580.0"/>
<line x1="140.0" y1="600.0" x2="160.0" y2="600.0"/>
<line x1="160.0" y1="40.0" x2="180.0" y2="40.0"/>
<line x1="180.0" y1="20.0" x2="180.0" y2="40.0"/>
<line x1="160.0" y1="60.0" x2="180.0" y2="60.0"/>
<line x1="180.0" y1="60.0" x2="180.0" y2="80.0"/>
<line x1="160.0" y1="120.0" x2="180.0" y2="120.0"/>
<line x1="180.0" y1="100.0" x2="180.0" y2="120.0"/>
<line x1="160.0" y1="160.0" x2="180.0" y2="160.0"/>
<line x1="180.0" y1="140.0" x2="180.0" y2="160.0"/>
<line x1="160.0" y1="200.0" x2="180.0" y2="200.0"/>
<line x1="180.0" y1="180.0" x2="180.0" y2="200.0"/>
<line x1="180.0" y1="200.0" x2="180.0" y2="220.0"/>
<line x1="160.0" y1="240.0" x2="180.0" y2="240.0"/>
<line x1="160.0" y1="260.0" x2="180.0" y2="260.0"/>
<line x1="160.0" y1="280.0" x2="180.0" y2="280.0"/>
<line x1="160.0" y1="300.0" x2="180.0" y2="300.0"/>
<line x1="180.0" y1="320.0" x2="180.0" y2="340.0"/>
<line x1="160.0" y1="360.0" x2="180.0" y2="360.0"/>
<line x1="180.0" y1="340.0" x2="180.0" y2="360.0"/>
<line x1="180.0" y1="360.0" x2="180.0" y2="380.0"/>
<line x1="160.0" y1="400.0" x2="180.0" y2="400.0"/>
<line x1="160.0" y1="440.0" x2="180.0" y2="440.0"/>
<line x1="180.0" y1="420.0" x2="180.0" y2="440.0"/>
<line x1="180.0" y1="440.0" x2="180.0" y2="460.0"/>
<line x1="160.0" y1="480.0" x2="180.0" y2="480.0"/>
<line x1="180.0" y1="480.0" x2="180.0" y2="500.0"/>
<line x1="160.0" y1="520.0" x2="180.0" y2="520.0"/>
<line x1="160.0" y1="560.0" x2="180.0" y2="560.0"/>
<line x1="180.0" y1="560.0" x2="180.0" y2="580.0"/>
<line x1="160.0" y1="600.0" x2="180.0" y2="600.0"/>
<line x1="180.0" y1="580.0" x2="180.0" y2="600.0"/>
<line x1="200.0" y1="0.0" x2="200.0" y2="20.0"/>
<line x1="180.0" y1="40.0" x2="200.0" y2="40.0"/>
<line x1="200.0" y1="40.0" x2="200.0" y2="60.0"/>
<line x1="180.0" y1="80.0" x2="200.0" y2="80.0"/>
<line x1="180.0" y1="100.0" x2="200.0" y2="100.0"/>
<line x1="180.0" y1="140.0" x2="200.0" y2="140.0"/>
<line x1="200.0" y1="120.0" x2="200.0" y2="140.0"/>
<line x1="180.0" y1="180.0" x2="200.0" y2="180.0"/>
<line x1="200.0" y1="160.0" x2="200.0" y2="180.0"/>
<line x1="180.0" y1="220.0" x2="200.0" y2="220.0"/>
<line x1="180.0" y1="240.0" x2="200.0" y2="240.0"/>
<line x1="200.0" y1="240.0" x2="200.0" y2="260.0"/>
<line x1="200.0" y1="260.0" x2="200.0" y2="280.0"/>
<line x1="180.0" y1="300.0" x2="200.0" y2="300.0"/>
<line x1="200.0" y1="280.0" x2="200.0" y2="300.0"/>
<line x1="200.0" y1="300.0" x2="200.0" y2="320.0"/>
<line x1="180.0" y1="340.0" x2="200.0" y2="340.0"/>
<line x1="200.0" y1="360.0" x2="200.0" y2="380.0"/>
<line x1="180.0" y1="400.0" x2="200.0" y2="400.0"/>
<line x1="200.0" y1="380.0" x2="200.0" y2="400.0"/>
<line x1="180.0" y1="420.0" x2="200.0" y2="420.0"/>
<line x1="180.0" y1="460.0" x2="200.0" y2="460.0"/>
<line x1="180.0" y1="500.0" x2="200.0" y2="500.0"/>
<line x1="200.0" y1="480.0" x2="200.0" y2="500.0"/>
<line x1="200.0" y1="500.0" x2="200.0" y2="520.0"/>
<line x1="180.0" y1="540.0" x2="200.0" y2="540.0"/>
<line x1="200.0" y1="520.0" x2="200.0" y2="540.0"/>
<line x1="200.0" y1="560.0" x2="200.0" y2="580.0"/>
<line x1="180.0" y1="600.0" x2="200.0" y2="600.0"/>
<line x1="200.0" y1="40.0" x2="220.0" y2="40.0"/>
<line x1="220.0" y1="20.0" x2="220.0" y2="40.0"/>
<line x1="200.0" y1="80.0" x2="220.0" y2="80.0"/>
<line x1="220.0" y1="60.0" x2="220.0" y2="80.0"/>
<line x1="200.0" y1="100.0" x2="220.0" y2="100.0"/>
<line x1="220.0" y1="80.0" x2="220.0" y2="100.0"/>
<line x1="220.0" y1="100.0" x2="220.0" y2="120.0"/>
<line x1="200.0" y1="140.0" x2="220.0" y2="140.0"/>
<line x1="200.0" y1="160.0" x2="220.0" y2="160.0"/>
<line x1="200.0" y1="200.0" x2="220.0" y2="200.0"/>
<line x1="220.0" y1="180.0" x2="220.0" y2="200.0"/>
<line x1="200.0" y1="220.0" x2="220.0" y2="220.0"/>
<line x1="220.0" y1="220.0" x2="220.0" y2="240.0"/>
<line x1="200.0" y1="280.0" x2="220.0" y2="280.0"/>
<line x1="200.0" y1="320.0" x2="220.0" y2="320.0"/>
<line x1="200.0" y1="340.0" x2="220.0" y2="340.0"/>
<line x1="220.0" y1="340.0" x2="220.0" y2="360.0"/>
<line x1="220.0" y1="360.0" x2="220.0" y2="380.0"/>
<line x1="200.0" y1="400.0" x2="220.0" y2="400.0"/>
<line x1="220.0" y1="400.0" x2="220.0" y2="420.0"/>
<line x1="200.0" y1="440.0" x2="220.0" y2="440.0"/>
<line x1="220.0" y1="420.0" x2="220.0" y2="440.0"/>
<line x1="200.0" y1="460.0" x2="220.0" y2="460.0"/>
<line x1="200.0" y1="480.0" x2="220.0" y2="480.0"/>
<line x1="200.0" y1="520.0" x2="220.0" y2="520.0"/>
<line x1="200.0" y1="560.0" x2="220.0" y2="560.0"/>
<line x1="220.0" y1="540.0" x2="220.0" y2="560.0"/>
<line x1="200.0" y1="600.0" x2="220.0" y2="600.0"/>
<line x1="220.0" y1="580.0" x2="220.0" y2="600.0"/>
<line x1="220.0" y1="20.0" x2="240.0" y2="20.0"/>
<line x1="240.0" y1="20.0" x2="240.0" y2="40.0"/>
<line x1="220.0" y1="60.0" x2="240.0" y2="60.0"/>
<line x1="240.0" y1="80.0" x2="240.0" y2="100.0"/>
<line x1="240.0" y1="100.0" x2="240.0" y2="120.0"/>
<line x1="220.0" y1="140.0" x2="240.0" y2="140.0"/>
<line x1="240.0" y1="120.0" x2="240.0" y2="140.0"/>
<line x1="240.0" y1="140.0" x2="240.0" y2="160.0"/>
<line x1="240.0" y1="160.0" x2="240.0" y2="180.0"/>
<line x1="220.0" y1="200.0" x2="240.0" y2="200.0"/>
<line x1="240.0" y1="180.0" x2="240.0" y2="200.0"/>
<line x1="240.0" y1="200.0" x2="240.0" y2="220.0"/>
<line x1="220.0" y1="240.0" x2="240.0" y2="240.0"/>
<line x1="220.0" y1="260.0" x2="240.0" y2="260.0"/>
<line x1="240.0" y1="240.0" x2="240.0" y2="260.0"/>
<line x1="220.0" y1="280.0" x2="240.0" y2="280.0"/>
<line x1="220.0" y1="300.0" x2="240.0" y2="300.0"/>
<line x1="240.0" y1="280.0" x2="240.0" y2="300.0"/>
<line x1="240.0" y1="300.0" x2="240.0" y2="320.0"/>
<line x1="240.0" y1="320.0" x2="240.0" y2="340.0"/>
<line x1="240.0" y1="340.0" x2="240.0" y2="360.0"/>
<line x1="220.0" y1="380.0" x2="240.0" y2="380.0"/>
<line x1="240.0" y1="360.0" x2="240.0" y2="380.0"/>
<line x1="220.0" y1="400.0" x2="240.0" y2="400.0"/>
<line x1="220.0" y1="440.0" x2="240.0" y2="440.0"/>
<line x1="220.0" y1="480.0" x2="240.0" y2="480.0"/>
<line x1="240.0" y1="460.0" x2="240.0" y2="480.0"/>
<line x1="220.0" y1="500.0" x2="240.0" y2="500.0"/>
<line x1="240.0" y1="500.0" x2="240.0" y2="520.0"/>
<line x1="220.0" y1="540.0" x2="240.0" y2="540.0"/>
<line x1="240.0" y1="520.0" x2="240.0" y2="540.0"/>
<line x1="220.0" y1="580.0" x2="240.0" y2="580.0"/>
<line x1="240.0" y1="560.0" x2="240.0" y2="580.0"/>
<line x1="220.0" y1="600.0" x2="240.0" y2="600.0"/>
<line x1="260.0" y1="0.0" x2="260.0" y2="20.0"/>
<line x1="240.0" y1="40.0" x2="260.0" y2="40.0"/>
<line x1="240.0" y1="80.0" x2="260.0" y2="80.0"/>
<line x1="260.0" y1="60.0" x2="260.0" y2="80.0"/>
<line x1="240.0" y1="120.0" x2="260.0" y2="120.0"/>
<line x1="240.0" y1="160.0" x2="260.0" y2="160.0"/>
<line x1="260.0" y1="180.0" x2="260.0" y2="200.0"/>
<line x1="260.0" y1="200.0" x2="260.0" y2="220.0"/>
<line x1="240.0" y1="240.0" x2="260.0" y2="240.0"/>
<line x1="260.0" y1="220.0" x2="260.0" y2="240.0"/>
<line x1="240.0" y1="280.0" x2="260.0" y2="280.0"/>
<line x1="260.0" y1="300.0" x2="260.0" y2="320.0"/>
<line x1="260.0" y1="320.0" x2="260.0" y2="340.0"/>
<line x1="260.0" y1="340.0" x2="260.0" y2="360.0"/>
<line x1="260.0" y1="360.0" x2="260.0" y2="380.0"/>
<line x1="240.0" y1="400.0" x2="260.0" y2="400.0"/>
<line x1="260.0" y1="380.0" x2="260.0" y2="400.0"/>
<line x1="240.0" y1="420.0" x2="260.0" y2="420.0"/>
<line x1="240.0" y1="440.0" x2="260.0" y2="440.0"/>
<line x1="240.0" y1="460.0" x2="260.0" y2="460.0"/>
<line x1="240.0" y1="500.0" x2="260.0" y2="500.0"/>
<line x1="260.0" y1="480.0" x2="260.0" y2="500.0"/>
<line x1="260.0" y1="500.0" x2="260.0" y2="520.0"/>
<line x1="240.0" y1="540.0" x2="260.0" y2="540.0"/>
<line x1="260.0" y1="540.0" x2="260.0" y2="560.0"/>
<line x1="260.0" y1="560.0" x2="260.0" y2="580.0"/>
<line x1="240.0" y1="600.0" x2="260.0" y2="600.0"/>
<line x1="260.0" y1="40.0" x2="280.0" y2="40.0"/>
<line x1="280.0" y1="20.0" x2="280.0" y2="40.0"/>
<line x1="280.0" y1="40.0" x2="280.0" y2="60.0"/>
<line x1="280.0" y1="60.0" x2="280.0" y2="80.0"/>
<line x1="260.0" y1="100.0" x2="280.0" y2="100.0"/>
<line x1="280.0" y1="80.0" x2="280.0" y2="100.0"/>
<line x1="280.0" y1="100.0" x2="280.0" y2="120.0"/>
<line x1="260.0" y1="140.0" x2="280.0" y2="140.0"/>
<line x1="280.0" y1="120.0" x2="280.0" y2="140.0"/>
<line x1="260.0" y1="160.0" x2="280.0" y2="160.0"/>
<line x1="280.0" y1="140.0" x2="280.0" y2="160.0"/>
<line x1="260.0" y1="180.0" x2="280.0" y2="180.0"/>
<line x1="280.0" y1="180.0" x2="280.0" y2="200.0"/>
<line x1="280.0" y1="200.0" x2="280.0" y2="220.0"/>
<line x1="280.0" y1="220.0" x2="280.0" y2="240.0"/>
<line x1="260.0" y1="260.0" x2="280.0" y2="260.0"/>
<line x1="260.0" y1="280.0" x2="280.0" y2="280.0"/>
<line x1="280.0" y1="260.0" x2="280.0" y2="280.0"/>
<line x1="280.0" y1="280.0" x2="280.0" y2="300.0"/>
<line x1="260.0" y1="320.0" x2="280.0" y2="320.0"/>
<line x1="280.0" y1="320.0" x2="280.0" y2="340.0"/>
<line x1="280.0" y1="340.0" x2="280.0" y2="360.0"/>
<line x1="260.0" y1="420.0" x2="280.0" y2="420.0"/>
<line x1="280.0" y1="400.0" x2="280.0" y2="420.0"/>
<line x1="260.0" y1="440.0" x2="280.0" y2="440.0"/>
<line x1="260.0" y1="460.0" x2="280.0" y2="460.0"/>
<line x1="280.0" y1="440.0" x2="280.0" y2="460.0"/>
<line x1="280.0" y1="460.0" x2="280.0" y2="480.0"/>
<line x1="280.0" y1="480.0" x2="280.0" y2="500.0"/>
<line x1="260.0" y1="520.0" x2="280.0" y2="520.0"/>
<line x1="260.0" y1="540.0" x2="280.0" y2="540.0"/>
<line x1="260.0" y1="580.0" x2="280.0" y2="580.0"/>
<line x1="260.0" y1="600.0" x2="280.0" y2="600.0"/>
<line x1="280.0" y1="20.0" x2="300.0" y2="20.0"/>
<line x1="300.0" y1="40.0" x2="300.0" y2="60.0"/>
<line x1="280.0" y1="80.0" x2="300.0" y2="80.0"/>
<line x1="300.0" y1="100.0" x2="300.0" y2="120.0"/>
<line x1="300.0" y1="120.0" x2="300.0" y2="140.0"/>
<line x1="300.0" y1="140.0" x2="300.0" y2="160.0"/>
<line x1="280.0" y1="180.0" x2="300.0" y2="180.0"/>
<line x1="300.0" y1="160.0" x2="300.0" y2="180.0"/>
<line x1="300.0" y1="200.0" x2="300.0" y2="220.0"/>
<line x1="280.0" y1="240.0" x2="300.0" y2="240.0"/>
<line x1="300.0" y1="240.0" x2="300.0" y2="260.0"/>
<line x1="280.0" y1="300.0" x2="300.0" y2="300.0"/>
<line x1="300.0" y1="280.0" x2="300.0" y2="300.0"/>
<line x1="300.0" y1="300.0" x2="300.0" y2="320.0"/>
<line x1="300.0" y1="320.0" x2="300.0" y2="340.0"/>
<line x1="280.0" y1="360.0" x2="300.0" y2="360.0"/>
<line x1="280.0" y1="380.0" x2="300.0" y2="380.0"/>
<line x1="300.0" y1="360.0" x2="300.0" y2="380.0"/>
<line x1="280.0" y1="400.0" x2="300.0" y2="400.0"/>
<line x1="280.0" y1="420.0" x2="300.0" y2="420.0"/>
<line x1="300.0" y1="420.0" x2="300.0" y2="440.0"/>
<line x1="300.0" y1="440.0" x2="300.0" y2="460.0"/>
<line x1="300.0" y1="460.0" x2="300.0" y2="480.0"/>
<line x1="300.0" y1="480.0" x2="300.0" y2="500.0"/>
<line x1="280.0" y1="520.0" x2="300.0" y2="520.0"/>
<line x1="300.0" y1="500.0" x2="300.0" y2="520.0"/>
<line x1="280.0" y1="540.0" x2="300.0" y2="540.0"/>
<line x1="280.0" y1="560.0" x2="300.0" y2="560.0"/>
<line x1="300.0" y1="560.0" x2="300.0" y2="580.0"/>
<line x1="280.0" y1="600.0" x2="300.0" y2="600.0"/>
<line x1="300.0" y1="580.0" x2="300.0" y2="600.0"/>
<line x1="320.0" y1="0.0" x2="320.0" y2="20.0"/>
<line x1="300.0" y1="40.0" x2="320.0" y2="40.0"/>
<line x1="320.0" y1="20.0" x2="320.0" y2="40.0"/>
<line x1="300.0" y1="80.0" x2="320.0" y2="80.0"/>
<line x1="320.0" y1="60.0" x2="320.0" y2="80.0"/>
<line x1="320.0" y1="100.0" x2="320.0" y2="120.0"/>
<line x1="300.0" y1="140.0" x2="320.0" y2="140.0"/>
<line x1="300.0" y1="180.0" x2="320.0" y2="180.0"/>
<line x1="300.0" y1="220.0" x2="320.0" y2="220.0"/>
<line x1="320.0" y1="220.0" x2="320.0" y2="240.0"/>
<line x1="320.0" y1="240.0" x2="320.0" y2="260.0"/>
<line x1="300.0" y1="280.0" x2="320.0" y2="280.0"/>
<line x1="320.0" y1="260.0" x2="320.0" y2="280.0"/>
<line x1="300.0" y1="340.0" x2="320.0" y2="340.0"/>
<line x1="300.0" y1="360.0" x2="320.0" y2="360.0"/>
<line x1="300.0" y1="400.0" x2="320.0" y2="400.0"/>
<line x1="320.0" y1="380.0" x2="320.0" y2="400.0"/>
<line x1="300.0" y1="460.0" x2="320.0" y2="460.0"/>
<line x1="300.0" y1="500.0" x2="320.0" y2="500.0"/>
<line x1="300.0" y1="540.0" x2="320.0" y2="540.0"/>
<line x1="300.0" y1="560.0" x2="320.0" y2="560.0"/>
<line x1="300.0" y1="600.0" x2="320.0" y2="600.0"/>
<line x1="320.0" y1="20.0" x2="340.0" y2="20.0"/>
<line x1="320.0" y1="60.0" x2="340.0" y2="60.0"/>
<line x1="340.0" y1="40.0" x2="340.0" y2="60.0"/>
<line x1="320.0" y1="100.0" x2="340.0" y2="100.0"/>
<line x1="340.0" y1="80.0" x2="340.0" y2="100.0"/>
<line x1="320.0" y1="140.0" x2="340.0" y2="140.0"/>
<line x1="340.0" y1="120.0" x2="340.0" y2="140.0"/>
<line x1="320.0" y1="160.0" x2="340.0" y2="160.0"/>
<line x1="320.0" y1="180.0" x2="340.0" y2="180.0"/>
<line x1="320.0" y1="200.0" x2="340.0" y2="200.0"/>
<line x1="340.0" y1="180.0" x2="340.0" y2="200.0"/>
<line x1="340.0" y1="200.0" x2="340.0" y2="220.0"/>
<line x1="340.0" y1="240.0" x2="340.0" y2="260.0"/>
<line x1="340.0" y1="260.0" x2="340.0" y2="280.0"/>
<line x1="320.0" y1="300.0" x2="340.0" y2="300.0"/>
<line x1="340.0" y1="280.0" x2="340.0" y2="300.0"/>
<line x1="320.0" y1="320.0" x2="340.0" y2="320.0"/>
<line x1="320.0" y1="340.0" x2="340.0" y2="340.0"/>
<line x1="340.0" y1="320.0" x2="340.0" y2="340.0"/>
<line x1="340.0" y1="340.0" x2="340.0" y2="360.0"/>
<line x1="320.0" y1="380.0" x2="340.0" y2="380.0"/>
<line x1="340.0" y1="360.0" x2="340.0" y2="380.0"/>
<line x1="340.0" y1="380.0" x2="340.0" y2="400.0"/>
<line x1="320.0" y1="420.0" x2="340.0" y2="420.0"/>
<line x1="340.0" y1="400.0" x2="340.0" y2="420.0"/>
<line x1="320.0" y1="440.0" x2="340.0" y2="440.0"/>
<line x1="340.0" y1="440.0" x2="340.0" y2="460.0"/>
<line x1="320.0" y1="480.0" x2="340.0" y2="480.0"/>
<line x1="340.0" y1="460.0" x2="340.0" y2="480.0"/>
<line x1="340.0" y1="480.0" x2="340.0" y2="500.0"/>
<line x1="320.0" y1="520.0" x2="340.0" y2="520.0"/>
<line x1="340.0" y1="500.0" x2="340.0" y2="520.0"/>
<line x1="320.0" y1="540.0" x2="340.0" y2="540.0"/>
<line x1="340.0" y1="520.0" x2="340.0" y2="540.0"/>
<line x1="340.0" y1="540.0" x2="340.0" y2="560.0"/>
<line x1="320.0" y1="580.0" x2="340.0" y2="580.0"/>
<line x1="340.0" y1="560.0" x2="340.0" y2="580.0"/>
<line x1="320.0" y1="600.0" x2="340.0" y2="600.0"/>
<line x1="340.0" y1="20.0" x2="360.0" y2="20.0"/>
<line x1="360.0" y1="20.0" x2="360.0" y2="40.0"/>
<line x1="340.0" y1="60.0" x2="360.0" y2="60.0"/>
<line x1="340.0" y1="80.0" x2="360.0" y2="80.0"/>
<line x1="340.0" y1="100.0" x2="360.0" y2="100.0"/>
<line x1="360.0" y1="100.0" x2="360.0" y2="120.0"/>
<line x1="360.0" y1="120.0" x2="360.0" y2="140.0"/>
<line x1="340.0" y1="160.0" x2="360.0" y2="160.0"/>
<line x1="360.0" y1="140.0" x2="360.0" y2="160.0"/>
<line x1="340.0" y1="180.0" x2="360.0" y2="180.0"/>
<line x1="340.0" y1="220.0" x2="360.0" y2="220.0"/>
<line x1="360.0" y1="220.0" x2="360.0" y2="240.0"/>
<line x1="340.0" y1="260.0" x2="360.0" y2="260.0"/>
<line x1="360.0" y1="240.0" x2="360.0" y2="260.0"/>
<line x1="340.0" y1="300.0" x2="360.0" y2="300.0"/>
<line x1="360.0" y1="320.0" x2="360.0" y2="340.0"/>
<line x1="340.0" y1="360.0" x2="360.0" y2="360.0"/>
<line x1="340.0" y1="440.0" x2="360.0" y2="440.0"/>
<line x1="360.0" y1="420.0" x2="360.0" y2="440.0"/>
<line x1="360.0" y1="460.0" x2="360.0" y2="480.0"/>
<line x1="360.0" y1="480.0" x2="360.0" y2="500.0"/>
<line x1="360.0" y1="500.0" x2="360.0" y2="520.0"/>
<line x1="340.0" y1="560.0" x2="360.0" y2="560.0"/>
<line x1="340.0" y1="600.0" x2="360.0" y2="600.0"/>
<line x1="360.0" y1="580.0" x2="360.0" y2="600.0"/>
<line x1="360.0" y1="20.0" x2="380.0" y2="20.0"/>
<line x1="360.0" y1="60.0" x2="380.0" y2="60.0"/>
<line x1="380.0" y1="40.0" x2="380.0" y2="60.0"/>
<line x1="380.0" y1="60.0" x2="380.0" y2="80.0"/>
<line x1="360.0" y1="100.0" x2="380.0" y2="100.0"/>
<line x1="380.0" y1="120.0" x2="380.0" y2="140.0"/>
<line x1="360.0" y1="160.0" x2="380.0" y2="160.0"/>
<line x1="380.0" y1="160.0" x2="380.0" y2="180.0"/>
<line x1="360.0" y1="200.0" x2="380.0" y2="200.0"/>
<line x1="360.0" y1="220.0" x2="380.0" y2="220.0"/>
<line x1="380.0" y1="240.0" x2="380.0" y2="260.0"/>
<line x1="360.0" y1="280.0" x2="380.0" y2="280.0"/>
<line x1="380.0" y1="260.0" x2="380.0" y2="280.0"/>
<line x1="360.0" y1="300.0" x2="380.0" y2="300.0"/>
<line x1="380.0" y1="300.0" x2="380.0" y2="320.0"/>
<line x1="360.0" y1="340.0" x2="380.0" y2="340.0"/>
<line x1="380.0" y1="320.0" x2="380.0" y2="340.0"/>
<line x1="380.0" y1="340.0" x2="380.0" y2="360.0"/>
<line x1="360.0" y1="380.0" x2="380.0" y2="380.0"/>
<line x1="360.0" y1="400.0" x2="380.0" y2="400.0"/>
<line x1="360.0" y1="420.0" x2="380.0" y2="420.0"/>
<line x1="360.0" y1="460.0" x2="380.0" y2="460.0"/>
<line x1="380.0" y1="440.0" x2="380.0" y2="460.0"/>
<line x1="380.0" y1="480.0" x2="380.0" y2="500.0"/>
<line x1="380.0" y1="500.0" x2="380.0" y2="520.0"/>
<line x1="360.0" y1="540.0" x2="380.0" y2="540.0"/>
<line x1="380.0" y1="520.0" x2="380.0" y2="540.0"/>
<line x1="360.0" y1="560.0" x2="380.0" y2="560.0"/>
<line x1="380.0" y1="540.0" x2="380.0" y2="560.0"/>
<line x1="380.0" y1="560.0" x2="380.0" y2="580.0"/>
<line x1="360.0" y1="600.0" x2="380.0" y2="600.0"/>
<line x1="380.0" y1="20.0" x2="400.0" y2="20.0"/>
<line x1="380.0" y1="40.0" x2="400.0" y2="40.0"/>
<line x1="380.0" y1="80.0" x2="400.0" y2="80.0"/>
<line x1="380.0" y1="100.0" x2="400.0" y2="100.0"/>
<line x1="400.0" y1="100.0" x2="400.0" y2="120.0"/>
<line x1="380.0" y1="140.0" x2="400.0" y2="140.0"/>
<line x1="400.0" y1="140.0" x2="400.0" y2="160.0"/>
<line x1="380.0" y1="180.0" x2="400.0" y2="180.0"/>
<line x1="380.0" y1="200.0" x2="400.0" y2="200.0"/>
<line x1="400.0" y1="180.0" x2="400.0" y2="200.0"/>
<line x1="380.0" y1="220.0" x2="400.0" y2="220.0"/>
<line x1="380.0" y1="240.0" x2="400.0" y2="240.0"/>
<line x1="380.0" y1="280.0" x2="400.0" y2="280.0"/>
<line x1="400.0" y1="280.0" x2="400.0" y2="300.0"/>
<line x1="400.0" y1="300.0" x2="400.0" y2="320.0"/>
<line x1="400.0" y1="320.0" x2="400.0" y2="340.0"/>
<line x1="380.0" y1="360.0" x2="400.0" y2="360.0"/>
<line x1="380.0" y1="380.0" x2="400.0" y2="380.0"/>
<line x1="380.0" y1="400.0" x2="400.0" y2="400.0"/>
<line x1="380.0" y1="420.0" x2="400.0" y2="420.0"/>
<line x1="380.0" y1="440.0" x2="400.0" y2="440.0"/>
<line x1="380.0" y1="480.0" x2="400.0" y2="480.0"/>
<line x1="400.0" y1="460.0" x2="400.0" y2="480.0"/>
<line x1="380.0" y1="520.0" x2="400.0" y2="520.0"/>
<line x1="380.0" y1="560.0" x2="400.0" y2="560.0"/>
<line x1="380.0" y1="600.0" x2="400.0" y2="600.0"/>
<line x1="400.0" y1="580.0" x2="400.0" y2="600.0"/>
<line x1="400.0" y1="20.0" x2="420.0" y2="20.0"/>
<line x1="400.0" y1="40.0" x2="420.0" y2="40.0"/>
<line x1="400.0" y1="60.0" x2="420.0" y2="60.0"/>
<line x1="420.0" y1="40.0" x2="420.0" y2="60.0"/>
<line x1="420.0" y1="60.0" x2="420.0" y2="80.0"/>
<line x1="400.0" y1="100.0" x2="420.0" y2="100.0"/>
<line x1="420.0" y1="80.0" x2="420.0" y2="100.0"/>
<line x1="400.0" y1="140.0" x2="420.0" y2="140.0"/>
<line x1="420.0" y1="120.0" x2="420.0" y2="140.0"/>
<line x1="400.0" y1="180.0" x2="420.0" y2="180.0"/>
<line x1="420.0" y1="160.0" x2="420.0" y2="180.0"/>
<line x1="400.0" y1="220.0" x2="420.0" y2="220.0"/>
<line x1="420.0" y1="200.0" x2="420.0" y2="220.0"/>
<line x1="420.0" y1="220.0" x2="420.0" y2="240.0"/>
<line x1="400.0" y1="260.0" x2="420.0" y2="260.0"/>
<line x1="420.0" y1="240.0" x2="420.0" y2="260.0"/>
<line x1="400.0" y1="280.0" x2="420.0" y2="280.0"/>
<line x1="400.0" y1="320.0" x2="420.0" y2="320.0"/>
<line x1="400.0" y1="360.0" x2="420.0" y2="360.0"/>
<line x1="420.0" y1="340.0" x2="420.0" y2="360.0"/>
<line x1="400.0" y1="380.0" x2="420.0" y2="380.0"/>
<line x1="420.0" y1="360.0" x2="420.0" y2="380.0"/>
<line x1="400.0" y1="400.0" x2="420.0" y2="400.0"/>
<line x1="400.0" y1="420.0" x2="420.0" y2="420.0"/>
<line x1="420.0" y1="400.0" x2="420.0" y2="420.0"/>
<line x1="400.0" y1="440.0" x2="420.0" y2="440.0"/>
<line x1="420.0" y1="440.0" x2="420.0" y2="460.0"/>
<line x1="420.0" y1="460.0" x2="420.0" y2="480.0"/>
<line x1="400.0" y1="500.0" x2="420.0" y2="500.0"/>
<line x1="420.0" y1="480.0" x2="420.0" y2="500.0"/>
<line x1="420.0" y1="500.0" x2="420.0" y2="520.0"/>
<line x1="400.0" y1="540.0" x2="420.0" y2="540.0"/>
<line x1="420.0" y1="520.0" x2="420.0" y2="540.0"/>
<line x1="420.0" y1="540.0" x2="420.0" y2="560.0"/>
<line x1="400.0" y1="580.0" x2="420.0" y2="580.0"/>
<line x1="420.0" y1="560.0" x2="420.0" y2="580.0"/>
<line x1="400.0" y1="600.0" x2="420.0" y2="600.0"/>
<line x1="420.0" y1="20.0" x2="440.0" y2="20.0"/>
<line x1="420.0" y1="40.0" x2="440.0" y2="40.0"/>
<line x1="420.0" y1="80.0" x2="440.0" y2="80.0"/>
<line x1="420.0" y1="120.0" x2="440.0" y2="120.0"/>
<line x1="440.0" y1="100.0" x2="440.0" y2="120.0"/>
<line x1="440.0" y1="120.0" x2="440.0" y2="140.0"/>
<line x1="420.0" y1="160.0" x2="440.0" y2="160.0"/>
<line x1="440.0" y1="160.0" x2="440.0" y2="180.0"/>
<line x1="420.0" y1="200.0" x2="440.0" y2="200.0"/>
<line x1="440.0" y1="220.0" x2="440.0" y2="240.0"/>
<line x1="440.0" y1="240.0" x2="440.0" y2="260.0"/>
<line x1="420.0" y1="280.0" x2="440.0" y2="280.0"/>
<line x1="440.0" y1="260.0" x2="440.0" y2="280.0"/>
<line x1="420.0" y1="300.0" x2="440.0" y2="300.0"/>
<line x1="420.0" y1="320.0" x2="440.0" y2="320.0"/>
<line x1="420.0" y1="340.0" x2="440.0" y2="340.0"/>
<line x1="420.0" y1="380.0" x2="440.0" y2="380.0"/>
<line x1="420.0" y1="400.0" x2="440.0" y2="400.0"/>
<line x1="420.0" y1="440.0" x2="440.0" y2="440.0"/>
<line x1="440.0" y1="420.0" x2="440.0" y2="440.0"/>
<line x1="440.0" y1="440.0" x2="440.0" y2="460.0"/>
<line x1="440.0" y1="460.0" x2="440.0" y2="480.0"/>
<line x1="440.0" y1="480.0" x2="440.0" y2="500.0"/>
<line x1="440.0" y1="520.0" x2="440.0" y2="540.0"/>
<line x1="440.0" y1="540.0" x2="440.0" y2="560.0"/>
<line x1="440.0" y1="560.0" x2="440.0" y2="580.0"/>
<line x1="420.0" y1="600.0" x2="440.0" y2="600.0"/>
<line x1="440.0" y1="20.0" x2="460.0" y2="20.0"/>
<line x1="440.0" y1="40.0" x2="460.0" y2="40.0"/>
<line x1="440.0" y1="60.0" x2="460.0" y2="60.0"/>
<line x1="440.0" y1="80.0" x2="460.0" y2="80.0"/>
<line x1="460.0" y1="100.0" x2="460.0" y2="120.0"/>
<line x1="440.0" y1="140.0" x2="460.0" y2="140.0"/>
<line x1="460.0" y1="140.0" x2="460.0" y2="160.0"/>
<line x1="440.0" y1="180.0" x2="460.0" y2="180.0"/>
<line x1="460.0" y1="180.0" x2="460.0" y2="200.0"/>
<line x1="460.0" y1="200.0" x2="460.0" y2="220.0"/>
<line x1="460.0" y1="220.0" x2="460.0" y2="240.0"/>
<line x1="460.0" y1="240.0" x2="460.0" y2="260.0"/>
<line x1="460.0" y1="260.0" x2="460.0" y2="280.0"/>
<line x1="440.0" y1="300.0" x2="460.0" y2="300.0"/>
<line x1="460.0" y1="280.0" x2="460.0" y2="300.0"/>
<line x1="440.0" y1="320.0" x2="460.0" y2="320.0"/>
<line x1="460.0" y1="320.0" x2="460.0" y2="340.0"/>
<line x1="440.0" y1="360.0" x2="460.0" y2="360.0"/>
<line x1="460.0" y1="340.0" x2="460.0" y2="360.0"/>
<line x1="440.0" y1="380.0" x2="460.0" y2="380.0"/>
<line x1="460.0" y1="380.0" x2="460.0" y2="400.0"/>
<line x1="460.0" y1="400.0" x2="460.0" y2="420.0"/>
<line x1="460.0" y1="420.0" x2="460.0" y2="440.0"/>
<line x1="460.0" y1="440.0" x2="460.0" y2="460.0"/>
<line x1="460.0" y1="460.0" x2="460.0" y2="480.0"/>
<line x1="440.0" y1="500.0" x2="460.0" y2="500.0"/>
<line x1="460.0" y1="500.0" x2="460.0" y2="520.0"/>
<line x1="460.0" y1="540.0" x2="460.0" y2="560.0"/>
<line x1="440.0" y1="580.0" x2="460.0" y2="580.0"/>
<line x1="460.0" y1="560.0" x2="460.0" y2="580.0"/>
<line x1="440.0" y1="600.0" x2="460.0" y2="600.0"/>
<line x1="460.0" y1="20.0" x2="480.0" y2="20.0"/>
<line x1="480.0" y1="20.0" x2="480.0" y2="40.0"/>
<line x1="460.0" y1="60.0" x2="480.0" y2="60.0"/>
<line x1="480.0" y1="40.0" x2="480.0" y2="60.0"/>
<line x1="460.0" y1="80.0" x2="480.0" y2="80.0"/>
<line x1="480.0" y1="80.0" x2="480.0" y2="100.0"/>
<line x1="460.0" y1="120.0" x2="480.0" y2="120.0"/>
<line x1="480.0" y1="100.0" x2="480.0" y2="120.0"/>
<line x1="460.0" y1="140.0" x2="480.0" y2="140.0"/>
<line x1="460.0" y1="160.0" x2="480.0" y2="160.0"/>
<line x1="480.0" y1="160.0" x2="480.0" y2="180.0"/>
<line x1="480.0" y1="180.0" x2="480.0" y2="200.0"/>
<line x1="480.0" y1="200.0" x2="480.0" y2="220.0"/>
<line x1="480.0" y1="220.0" x2="480.0" y2="240.0"/>
<line x1="460.0" y1="260.0" x2="480.0" y2="260.0"/>
<line x1="480.0" y1="260.0" x2="480.0" y2="280.0"/>
<line x1="460.0" y1="320.0" x2="480.0" y2="320.0"/>
<line x1="480.0" y1="300.0" x2="480.0" y2="320.0"/>
<line x1="460.0" y1="360.0" x2="480.0" y2="360.0"/>
<line x1="480.0" y1="340.0" x2="480.0" y2="360.0"/>
<line x1="460.0" y1="380.0" x2="480.0" y2="380.0"/>
<line x1="460.0" y1="420.0" x2="480.0" y2="420.0"/>
<line x1="480.0" y1="440.0" x2="480.0" y2="460.0"/>
<line x1="460.0" y1="480.0" x2="480.0" y2="480.0"/>
<line x1="460.0" y1="500.0" x2="480.0" y2="500.0"/>
<line x1="460.0" y1="540.0" x2="480.0" y2="540.0"/>
<line x1="480.0" y1="520.0" x2="480.0" y2="540.0"/>
<line x1="460.0" y1="580.0" x2="480.0" y2="580.0"/>
<line x1="460.0" y1="600.0" x2="480.0" y2="600.0"/>
<line x1="480.0" y1="20.0" x2="500.0" y2="20.0"/>
<line x1="480.0" y1="60.0" x2="500.0" y2="60.0"/>
<line x1="500.0" y1="60.0" x2="500.0" y2="80.0"/>
<line x1="500.0" y1="80.0" x2="500.0" y2="100.0"/>
<line x1="500.0" y1="100.0" x2="500.0" y2="120.0"/>
<line x1="480.0" y1="140.0" x2="500.0" y2="140.0"/>
<line x1="500.0" y1="120.0" x2="500.0" y2="140.0"/>
<line x1="480.0" y1="200.0" x2="500.0" y2="200.0"/>
<line x1="500.0" y1="180.0" x2="500.0" y2="200.0"/>
<line x1="480.0" y1="240.0" x2="500.0" y2="240.0"/>
<line x1="500.0" y1="240.0" x2="500.0" y2="260.0"/>
<line x1="480.0" y1="280.0" x2="500.0" y2="280.0"/>
<line x1="500.0" y1="280.0" x2="500.0" y2="300.0"/>
<line x1="500.0" y1="300.0" x2="500.0" y2="320.0"/>
<line x1="480.0" y1="340.0" x2="500.0" y2="340.0"/>
<line x1="500.0" y1="320.0" x2="500.0" y2="340.0"/>
<line x1="480.0" y1="380.0" x2="500.0" y2="380.0"/>
<line x1="500.0" y1="360.0" x2="500.0" y2="380.0"/>
<line x1="480.0" y1="400.0" x2="500.0" y2="400.0"/>
<line x1="480.0" y1="420.0" x2="500.0" y2="420.0"/>
<line x1="500.0" y1="420.0" x2="500.0" y2="440.0"/>
<line x1="480.0" y1="460.0" x2="500.0" y2="460.0"/>
<line x1="500.0" y1="440.0" x2="500.0" y2="460.0"/>
<line x1="480.0" y1="500.0" x2="500.0" y2="500.0"/>
<line x1="500.0" y1="480.0" x2="500.0" y2="500.0"/>
<line x1="500.0" y1="500.0" x2="500.0" y2="520.0"/>
<line x1="480.0" y1="540.0" x2="500.0" y2="540.0"/>
<line x1="480.0" y1="560.0" x2="500.0" y2="560.0"/>
<line x1="480.0" y1="580.0" x2="500.0" y2="580.0"/>
<line x1="480.0" y1="600.0" x2="500.0" y2="600.0"/>
<line x1="500.0" y1="40.0" x2="520.0" y2="40.0"/>
<line x1="520.0" y1="20.0" x2="520.0" y2="40.0"/>
<line x1="520.0" y1="60.0" x2="520.0" y2="80.0"/>
<line x1="500.0" y1="100.0" x2="520.0" y2="100.0"/>
<line x1="520.0" y1="120.0" x2="520.0" y2="140.0"/>
<line x1="500.0" y1="160.0" x2="520.0" y2="160.0"/>
<line x1="520.0" y1="140.0" x2="520.0" y2="160.0"/>
<line x1="520.0" y1="160.0" x2="520.0" y2="180.0"/>
<line x1="500.0" y1="200.0" x2="520.0" y2="200.0"/>
<line x1="500.0" y1="220.0" x2="520.0" y2="220.0"/>
<line x1="520.0" y1="220.0" x2="520.0" y2="240.0"/>
<line x1="500.0" y1="260.0" x2="520.0" y2="260.0"/>
<line x1="500.0" y1="280.0" x2="520.0" y2="280.0"/>
<line x1="520.0" y1="300.0" x2="520.0" y2="320.0"/>
<line x1="500.0" y1="340.0" x2="520.0" y2="340.0"/>
<line x1="520.0" y1="340.0" x2="520.0" y2="360.0"/>
<line x1="520.0" y1="360.0" x2="520.0" y2="380.0"/>
<line x1="500.0" y1="400.0" x2="520.0" y2="400.0"/>
<line x1="520.0" y1="380.0" x2="520.0" y2="400.0"/>
<line x1="520.0" y1="420.0" x2="520.0" y2="440.0"/>
<line x1="500.0" y1="460.0" x2="520.0" y2="460.0"/>
<line x1="500.0" y1="480.0" x2="520.0" y2="480.0"/>
<line x1="520.0" y1="500.0" x2="520.0" y2="520.0"/>
<line x1="500.0" y1="540.0" x2="520.0" y2="540.0"/>
<line x1="520.0" y1="520.0" x2="520.0" y2="540.0"/>
<line x1="500.0" y1="560.0" x2="520.0" y2="560.0"/>
<line x1="520.0" y1="560.0" x2="520.0" y2="580.0"/>
<line x1="500.0" y1="600.0" x2="520.0" y2="600.0"/>
<line x1="520.0" y1="20.0" x2="540.0" y2="20.0"/>
<line x1="520.0" y1="40.0" x2="540.0" y2="40.0"/>
<line x1="540.0" y1="40.0" x2="540.0" y2="60.0"/>
<line x1="520.0" y1="80.0" x2="540.0" y2="80.0"/>
<line x1="520.0" y1="100.0" x2="540.0" y2="100.0"/>
<line x1="540.0" y1="80.0" x2="540.0" y2="100.0"/>
<line x1="540.0" y1="100.0" x2="540.0" y2="120.0"/>
<line x1="540.0" y1="120.0" x2="540.0" y2="140.0"/>
<line x1="540.0" y1="140.0" x2="540.0" y2="160.0"/>
<line x1="520.0" y1="180.0" x2="540.0" y2="180.0"/>
<line x1="540.0" y1="180.0" x2="540.0" y2="200.0"/>
<line x1="520.0" y1="220.0" x2="540.0" y2="220.0"/>
<line x1="540.0" y1="200.0" x2="540.0" y2="220.0"/>
<line x1="520.0" y1="260.0" x2="540.0" y2="260.0"/>
<line x1="540.0" y1="260.0" x2="540.0" y2="280.0"/>
<line x1="520.0" y1="300.0" x2="540.0" y2="300.0"/>
<line x1="540.0" y1="280.0" x2="540.0" y2="300.0"/>
<line x1="520.0" y1="320.0" x2="540.0" y2="320.0"/>
<line x1="520.0" y1="340.0" x2="540.0" y2="340.0"/>
<line x1="540.0" y1="360.0" x2="540.0" y2="380.0"/>
<line x1="520.0" y1="400.0" x2="540.0" y2="400.0"/>
<line x1="520.0" y1="420.0" x2="540.0" y2="420.0"/>
<line x1="540.0" y1="400.0" x2="540.0" y2="420.0"/>
<line x1="520.0" y1="460.0" x2="540.0" y2="460.0"/>
<line x1="540.0" y1="440.0" x2="540.0" y2="460.0"/>
<line x1="520.0" y1="480.0" x2="540.0" y2="480.0"/>
<line x1="540.0" y1="480.0" x2="540.0" y2="500.0"/>
<line x1="520.0" y1="540.0" x2="540.0" y2="540.0"/>
<line x1="540.0" y1="520.0" x2="540.0" y2="540.0"/>
<line x1="520.0" y1="560.0" x2="540.0" y2="560.0"/>
<line x1="520.0" y1="600.0" x2="540.0" y2="600.0"/>
<line x1="540.0" y1="580.0" x2="540.0" y2="600.0"/>
<line x1="560.0" y1="0.0" x2="560.0" y2="20.0"/>
<line x1="540.0" y1="60.0" x2="560.0" y2="60.0"/>
<line x1="560.0" y1="40.0" x2="560.0" y2="60.0"/>
<line x1="540.0" y1="80.0" x2="560.0" y2="80.0"/>
<line x1="560.0" y1="100.0" x2="560.0" y2="120.0"/>
<line x1="540.0" y1="140.0" x2="560.0" y2="140.0"/>
<line x1="540.0" y1="180.0" x2="560.0" y2="180.0"/>
<line x1="560.0" y1="160.0" x2="560.0" y2="180.0"/>
<line x1="540.0" y1="220.0" x2="560.0" y2="220.0"/>
<line x1="560.0" y1="200.0" x2="560.0" y2="220.0"/>
<line x1="540.0" y1="240.0" x2="560.0" y2="240.0"/>
<line x1="540.0" y1="260.0" x2="560.0" y2="260.0"/>
<line x1="560.0" y1="280.0" x2="560.0" y2="300.0"/>
<line x1="540.0" y1="320.0" x2="560.0" y2="320.0"/>
<line x1="560.0" y1="320.0" x2="560.0" y2="340.0"/>
<line x1="540.0" y1="360.0" x2="560.0" y2="360.0"/>
<line x1="560.0" y1="340.0" x2="560.0" y2="360.0"/>
<line x1="540.0" y1="380.0" x2="560.0" y2="380.0"/>
<line x1="560.0" y1="380.0" x2="560.0" y2="400.0"/>
<line x1="560.0" y1="400.0" x2="560.0" y2="420.0"/>
<line x1="540.0" y1="440.0" x2="560.0" y2="440.0"/>
<line x1="560.0" y1="420.0" x2="560.0" y2="440.0"/>
<line x1="540.0" y1="460.0" x2="560.0" y2="460.0"/>
<line x1="560.0" y1="460.0" x2="560.0" y2="480.0"/>
<line x1="540.0" y1="500.0" x2="560.0" y2="500.0"/>
<line x1="540.0" y1="520.0" x2="560.0" y2="520.0"/>
<line x1="560.0" y1="500.0" x2="560.0" y2="520.0"/>
<line x1="540.0" y1="560.0" x2="560.0" y2="560.0"/>
<line x1="560.0" y1="540.0" x2="560.0" y2="560.0"/>
<line x1="540.0" y1="580.0" x2="560.0" y2="580.0"/>
<line x1="540.0" y1="600.0" x2="560.0" y2="600.0"/>
<line x1="560.0" y1="40.0" x2="580.0" y2="40.0"/>
<line x1="580.0" y1="20.0" x2="580.0" y2="40.0"/>
<line x1="560.0" y1="80.0" x2="580.0" y2="80.0"/>
<line x1="580.0" y1="60.0" x2="580.0" y2="80.0"/>
<line x1="560.0" y1="100.0" x2="580.0" y2="100.0"/>
<line x1="560.0" y1="120.0" x2="580.0" y2="120.0"/>
<line x1="580.0" y1="120.0" x2="580.0" y2="140.0"/>
<line x1="560.0" y1="160.0" x2="580.0" y2="160.0"/>
<line x1="580.0" y1="140.0" x2="580.0" y2="160.0"/>
<line x1="580.0" y1="160.0" x2="580.0" y2="180.0"/>
<line x1="580.0" y1="180.0" x2="580.0" y2="200.0"/>
<line x1="560.0" y1="220.0" x2="580.0" y2="220.0"/>
<line x1="560.0" y1="240.0" x2="580.0" y2="240.0"/>
<line x1="560.0" y1="260.0" x2="580.0" y2="260.0"/>
<line x1="580.0" y1="240.0" x2="580.0" y2="260.0"/>
<line x1="560.0" y1="280.0" x2="580.0" y2="280.0"/>
<line x1="560.0" y1="300.0" x2="580.0" y2="300.0"/>
<line x1="580.0" y1="300.0" x2="580.0" y2="320.0"/>
<line x1="580.0" y1="320.0" x2="580.0" y2="340.0"/>
<line x1="560.0" y1="360.0" x2="580.0" y2="360.0"/>
<line x1="580.0" y1="400.0" x2="580.0" y2="420.0"/>
<line x1="580.0" y1="420.0" x2="580.0" y2="440.0"/>
<line x1="580.0" y1="440.0" x2="580.0" y2="460.0"/>
<line x1="560.0" y1="480.0" x2="580.0" y2="480.0"/>
<line x1="580.0" y1="460.0" x2="580.0" y2="480.0"/>
<line x1="560.0" y1="500.0" x2="580.0" y2="500.0"/>
<line x1="560.0" y1="540.0" x2="580.0" y2="540.0"/>
<line x1="580.0" y1="520.0" x2="580.0" y2="540.0"/>
<line x1="560.0" y1="580.0" x2="580.0" y2="580.0"/>
<line x1="580.0" y1="560.0" x2="580.0" y2="580.0"/>
<line x1="560.0" y1="600.0" x2="580.0" y2="600.0"/>
<line x1="600.0" y1="0.0" x2="600.0" y2="20.0"/>
<line x1="580.0" y1="40.0" x2="600.0" y2="40.0"/>
<line x1="600.0" y1="20.0" x2="600.0" y2="40.0"/>
<line x1="600.0" y1="40.0" x2="600.0" y2="60.0"/>
<line x1="600.0" y1="60.0" x2="600.0" y2="80.0"/>
<line x1="600.0" y1="80.0" x2="600.0" y2="100.0"/>
<line x1="600.0" y1="100.0" x2="600.0" y2="120.0"/>
<line x1="600.0" y1="120.0" x2="600.0" y2="140.0"/>
<line x1="600.0" y1="140.0" x2="600.0" y2="160.0"/>
<line x1="600.0" y1="160.0" x2="600.0" y2="180.0"/>
<line x1="600.0" y1="180.0" x2="600.0" y2="200.0"/>
<line x1="580.0" y1="220.0" x2="600.0" y2="220.0"/>
<line x1="600.0" y1="200.0" x2="600.0" y2="220.0"/>
<line x1="600.0" y1="220.0" x2="600.0" y2="240.0"/>
<line x1="600.0" y1="240.0" x2="600.0" y2="260.0"/>
<line x1="600.0" y1="260.0" x2="600.0" y2="280.0"/>
<line x1="600.0" y1="280.0" x2="600.0" y2="300.0"/>
<line x1="600.0" y1="300.0" x2="600.0" y2="320.0"/>
<line x1="580.0" y1="340.0" x2="600.0" y2="340.0"/>
<line x1="600.0" y1="320.0" x2="600.0" y2="340.0"/>
<line x1="600.0" y1="340.0" x2="600.0" y2="360.0"/>
<line x1="580.0" y1="380.0" x2="600.0" y2="380.0"/>
<line x1="600.0" y1="360.0" x2="600.0" y2="380.0"/>
<line x1="600.0" y1="380.0" x2="600.0" y2="400.0"/>
<line x1="600.0" y1="400.0" x2="600.0" y2="420.0"/>
<line x1="600.0" y1="420.0" x2="600.0" y2="440.0"/>
<line x1="600.0" y1="440.0" x2="600.0" y2="460.0"/>
<line x1="600.0" y1="460.0" x2="600.0" y2="480.0"/>
<line x1="600.0" y1="480.0" x2="600.0" y2="500.0"/>
<line x1="580.0" y1="520.0" x2="600.0" y2="520.0"/>
<line x1="600.0" y1="500.0" x2="600.0" y2="520.0"/>
<line x1="600.0" y1="520.0" x2="600.0" y2="540.0"/>
<line x1="600.0" y1="540.0" x2="600.0" y2="560.0"/>
<line x1="600.0" y1="560.0" x2="600.0" y2="580.0"/>
<line x1="580.0" y1="600.0" x2="600.0" y2="600.0"/>
<line x1="600.0" y1="580.0" x2="600.0" y2="600.0"/>
<line x1="0" y1="0" x2="600" y2="0"/>
<line x1="0" y1="0" x2="0" y2="600"/>
</svg>
