<?xml version="1.0" encoding="UTF-8" standalone="no"?>
<svg
   width="461.51453pt"
   height="192.85532pt"
   viewBox="0 0 461.51454 192.85531"
   version="1.2"
   id="svg14316"
   sodipodi:docname="head-tail-pages.svg"
   inkscape:version="1.1.1 (3bf5ae0d25, 2021-09-20)"
   xmlns:inkscape="http://www.inkscape.org/namespaces/inkscape"
   xmlns:sodipodi="http://sodipodi.sourceforge.net/DTD/sodipodi-0.dtd"
   xmlns="http://www.w3.org/2000/svg"
   xmlns:svg="http://www.w3.org/2000/svg">
  <defs
     id="defs14320" />
  <sodipodi:namedview
     id="namedview14318"
     pagecolor="#ffffff"
     bordercolor="#666666"
     borderopacity="1.0"
     inkscape:pageshadow="2"
     inkscape:pageopacity="0.0"
     inkscape:pagecheckerboard="0"
     inkscape:document-units="pt"
     showgrid="false"
     fit-margin-top="10"
     fit-margin-left="10"
     fit-margin-right="10"
     fit-margin-bottom="10"
     inkscape:zoom="0.79998596"
     inkscape:cx="375.63159"
     inkscape:cy="-4.3750768"
     inkscape:window-width="1916"
     inkscape:window-height="1045"
     inkscape:window-x="0"
     inkscape:window-y="15"
     inkscape:window-maximized="1"
     inkscape:current-layer="svg14316" />
  <g
     id="surface1037064"
     transform="translate(-15.686262,-62.759844)">
    <path
       style="fill:none;stroke:#000000;stroke-width:1.41;stroke-linecap:round;stroke-linejoin:round;stroke-miterlimit:10;stroke-opacity:1"
       d="m 26.917969,127.22266 -0.289063,0.0859 -0.09375,-0.30078 -0.144531,-0.38672 0.144531,0.47266 v 1.37891 l 0.04687,0.47656 v 0.51562 l 0.04687,0.60157 0.09766,0.64843 0.04688,0.69141 0.09766,0.73047 0.04687,0.73437 0.09375,0.73047 0.05078,0.77735 0.140625,0.77734 0.05078,0.73047 0.04687,0.77734 0.04687,0.69141 0.04687,0.73047 v 0.6914 l 0.05078,0.73047 0.04688,0.77735 0.04687,0.73437 0.09766,0.77344 0.04687,0.82031 v 0.82031 l 0.04687,0.81641 v 4.78516 l 0.05078,0.51953 v 0.42968 l 0.04687,0.42969 v 2.67578 l 0.191406,-0.39062 v -0.34375 l -0.04687,-0.47266"
       id="path14167" />
    <path
       style="fill:none;stroke:#000000;stroke-width:1.41;stroke-linecap:round;stroke-linejoin:round;stroke-miterlimit:10;stroke-opacity:1"
       d="m 26.4375,127.09375 0.480469,0.043 h 3.734375 l 0.671875,0.043 0.765625,0.0859 1.726562,0.0859 0.957032,0.043 h 2.058593 l 1.148438,0.043 h 2.347656 l 1.199219,-0.043 h 1.195312 l 1.199219,-0.043 1.148437,-0.043 1.199219,-0.043 1.195313,-0.043 1.152344,-0.043 1.195312,-0.043 h 10.011719 l 1.054687,-0.043 1.914063,-0.0859 0.960937,-0.0859 0.910156,-0.0859 0.859376,-0.043 h 1.628906 l 0.765625,-0.043 h 0.71875 l 0.71875,-0.043 h 7.089843 l 0.335938,0.043 h 0.382812 l 0.429688,-0.043 0.960938,-0.0859 0.527343,-0.0859 0.523438,-0.0469 0.527343,-0.0859 0.480469,-0.1289 0.527344,-0.0859 0.480469,-0.12891 0.523437,-0.1289 0.433594,-0.0859 0.429687,-0.043 h 1.007813 l 0.527344,0.043 0.332031,0.0859 0.289062,0.1289 0.335938,0.17188 0.335938,0.0859 h 0.382812 l 0.476562,0.043 0.527344,0.043 0.574219,0.043 0.578125,-0.043 0.332031,-0.043 0.289063,-0.0859 0.480468,-0.0859 0.859376,-0.17187 h 0.480468 l 0.527344,-0.12891 0.382812,-0.0859 0.429688,-0.1289 1.054688,-0.25782 0.574218,-0.13281 0.625,-0.12891 2.296875,-0.51562 0.527344,-0.0859 0.480469,-0.0859 0.429687,-0.043 0.382813,-0.043 0.335937,-0.043 0.527344,-0.0859 h 0.718755 l 0.38281,0.043 h 0.76562 l 0.48047,0.12891 0.33594,0.0859 0.38281,0.0859 0.47656,0.0859 0.48047,0.043 0.42969,0.043 h 2.73047 l 0.38281,-0.0859 0.33594,-0.30078 0.28906,-0.12891 0.47656,-0.043 0.38282,-0.043 0.43359,-0.043 h 0.8125 l 0.33594,0.043 0.42969,-0.21875 0.28906,-0.1289 0.28906,-0.0859 0.33203,-0.0859 0.19531,-0.25781 0.14063,0.38672 v 0.34765 l 0.0508,0.42969 v 10.60547 l 0.0937,1.33594 0.0977,1.33593 0.14062,1.25 0.14453,1.20704 0.19141,1.16406 0.19141,1.07812 0.14453,0.99219 0.1914,0.94531 0.14453,0.86328 0.14454,0.73438 0.14062,0.6875 0.14453,0.64844 0.0977,0.60156 0.0469,0.51953 0.0469,0.51563"
       id="path14169" />
    <path
       style="fill:none;stroke:#000000;stroke-width:1.41;stroke-linecap:round;stroke-linejoin:round;stroke-miterlimit:10;stroke-opacity:1"
       d="m 29.503906,152.82812 0.429688,-0.043 0.578125,-0.12891 0.332031,-0.0859 0.480469,-0.0859 0.527343,-0.1289 0.621094,-0.0859 0.769532,-0.12891 0.859374,-0.1289 1.007813,-0.12891 1.054687,-0.0859 1.148438,-0.0859 1.195312,-0.043 1.292969,-0.0469 1.390625,-0.043 1.4375,-0.043 1.53125,-0.043 1.582032,-0.043 1.675781,-0.0859 1.675781,-0.043 1.773438,-0.043 1.820312,-0.1289 1.867188,-0.0859 1.867187,-0.12891 1.917969,-0.1289 3.929687,-0.25782 1.914063,-0.17578 1.867187,-0.17187 3.546875,-0.17188 h 4.933594 l 1.53125,0.043 1.484375,0.043 1.390625,0.12891 1.339844,0.0859 1.34375,0.0859 1.242187,0.0898 1.292969,0.043 h 1.292969 l 1.246093,0.043 1.199219,-0.043 1.195313,-0.043 1.152344,-0.0898 1.101562,-0.0859 1.054688,-0.0859 1.003906,-0.0859 0.957031,-0.12891 0.910156,-0.0859 0.863281,-0.12891 1.53125,-0.17188 0.671876,-0.1289 0.621093,-0.043 0.578125,-0.0859 0.476564,-0.0859 0.48047,-0.0898 0.48047,-0.0859 0.38281,-0.043 h 2.48828 l 0.52734,0.0859 0.625,0.13281 0.33204,0.043 0.38281,0.0859 0.43359,0.043 0.42969,0.043 h 0.48047 l 0.47656,0.043 h 1.48828 l 0.47656,-0.043 0.4336,-0.043 0.42969,-0.043 0.33593,-0.12891 0.28516,-0.0898 0.43359,-0.21484 0.14453,-0.34375"
       id="path14171" />
    <path
       style="fill:none;stroke:#000000;stroke-width:1.41;stroke-linecap:round;stroke-linejoin:round;stroke-miterlimit:10;stroke-opacity:1"
       d="m 32.136719,160.63281 -0.429688,0.043 h -0.382812 l -0.429688,0.043 -0.382812,0.12891 -0.335938,0.21484 -0.191406,0.26172 -0.09766,0.30078 0.144531,0.34375 0.335938,0.51953 0.191406,0.30078 0.238281,0.30078 0.335937,0.34375 0.335938,0.30469 0.382812,0.34375 0.429688,0.34375 0.480469,0.34375 0.429687,0.39063 0.480469,0.42968 0.429687,0.38672 0.382813,0.4336 0.335937,0.42968 0.289063,0.4336 0.191406,0.38672 0.144531,0.38671 0.09375,0.34375 v 0.39063 l -0.09375,0.30078 -0.191406,0.34375 -0.242187,0.30469 -0.765625,0.60156 -0.429688,0.30078 -0.433594,0.30469 -0.476562,0.30078 -0.480469,0.25781 -0.480469,0.21485 -0.476562,0.17187 -0.433594,0.17578 -0.765625,0.25782 -0.335937,0.0859 -0.332032,0.0859 H 29.12109 l -0.382813,-0.30078 -0.04687,-0.34766 v -0.47265 l 0.09375,-0.30078"
       id="path14173" />
    <path
       style="fill:none;stroke:#000000;stroke-width:1.41;stroke-linecap:round;stroke-linejoin:round;stroke-miterlimit:10;stroke-opacity:1"
       d="m 41.621094,159.38281 -0.285156,-0.25781 -0.191407,-0.25781 v 0.38672 l 0.335938,0.60156 0.191406,0.43359 0.191406,0.51563 0.191407,0.60547 0.191406,0.60156 0.191406,0.60547 0.144531,0.64453 0.191407,0.60547 0.144531,0.60156 0.09375,0.60547 0.09766,0.60156 0.04687,0.51953 0.04687,0.47266 0.09766,0.42969 0.04687,0.43359 0.04687,0.38672 v 0.30078 l 0.04687,0.47656 -0.140625,0.34375"
       id="path14175" />
    <path
       style="fill:none;stroke:#000000;stroke-width:1.41;stroke-linecap:round;stroke-linejoin:round;stroke-miterlimit:10;stroke-opacity:1"
       d="m 38.941406,165.63281 0.527344,-0.1289 h 0.382812 l 0.382813,-0.043 h 1.386719 l 0.578125,-0.043 0.523437,-0.043 0.578125,-0.043 H 44.6875"
       id="path14177" />
    <path
       style="fill:none;stroke:#000000;stroke-width:1.41;stroke-linecap:round;stroke-linejoin:round;stroke-miterlimit:10;stroke-opacity:1"
       d="m 48.710938,164.55469 0.242187,0.47656 0.238281,0.42969 0.191406,0.25781 0.191407,0.34766 0.574219,1.16015 0.191406,0.4336 0.238281,0.42968 0.195313,0.4336 0.238281,0.42968 0.144531,0.42969 0.191406,0.34766 0.09375,0.34375 0.242188,0.47265 0.238281,0.30469 -0.238281,-0.5625 -0.05078,-0.30078 -0.04687,-0.39062 -0.04688,-0.38672 -0.05078,-0.38672 v -1.33594 l 0.05078,-0.39062 0.09375,-0.38672 0.144532,-0.34375 0.238281,-0.34766 0.289063,-0.34375 0.285156,-0.30078 0.289062,-0.34375 0.382813,-0.30469 0.382812,-0.30078 0.382813,-0.21484 0.335937,-0.21485 0.335938,-0.1289 0.335937,-0.0859 h 0.480469"
       id="path14179" />
    <path
       style="fill:none;stroke:#000000;stroke-width:1.41;stroke-linecap:round;stroke-linejoin:round;stroke-miterlimit:10;stroke-opacity:1"
       d="m 58.769531,165.28906 -0.04687,0.38672 0.04687,0.47656 0.05078,0.30078 0.09375,0.34375 0.144532,0.30079 0.191406,0.26171 0.144531,0.30079 0.191407,0.25781 0.191406,0.30078 0.191406,0.26172 0.238281,0.21484 0.480469,0.25781 0.429688,0.0859 0.527343,-0.043 0.429688,-0.25781 0.386719,-0.43359 0.191406,-0.30078 0.09375,-0.30079 0.09766,-0.38671 0.09375,-0.39063 v -0.34375 l 0.04687,-0.38672 v -2.37109 l -0.04687,-0.34766"
       id="path14181" />
    <path
       style="fill:none;stroke:#000000;stroke-width:1.41;stroke-linecap:round;stroke-linejoin:round;stroke-miterlimit:10;stroke-opacity:1"
       d="m 67.296875,162.96094 -0.191406,0.25781 -0.335938,0.34375 -0.191406,0.30469 -0.285156,0.30078 -0.242188,0.34375 -0.285156,0.39062 -0.242187,0.42969 -0.191407,0.42969 -0.140625,0.43359 -0.144531,0.42969 -0.05078,0.34375 v 0.34766 l 0.05078,0.55859 0.335937,0.42969 0.285157,0.13281 0.335937,0.0859 0.765625,0.0859 0.433594,-0.043 0.476563,-0.12891 0.433593,-0.17578 0.476563,-0.25781 0.382812,-0.30079"
       id="path14183" />
    <path
       style="fill:none;stroke:#000000;stroke-width:1.41;stroke-linecap:round;stroke-linejoin:round;stroke-miterlimit:10;stroke-opacity:1"
       d="m 71.992188,157.70312 0.04687,0.34375 0.191407,0.47266 0.04687,0.34766 0.09766,0.42968 0.09375,0.47266 0.05078,0.51953 0.140625,0.5586 0.09766,0.60546 0.09375,0.60157 0.144532,0.64843 0.144531,0.64454 0.144531,0.6914 0.144532,0.6875 0.140624,0.64844 0.09766,0.55859 0.09375,0.51953 0.05078,0.42969 0.09375,0.34375 0.144531,0.47656"
       id="path14185" />
    <path
       style="fill:none;stroke:#000000;stroke-width:1.41;stroke-linecap:round;stroke-linejoin:round;stroke-miterlimit:10;stroke-opacity:1"
       d="m 71.320312,163.13281 0.04688,-0.30078 0.289062,-0.0859 0.574219,-0.1289 0.335937,-0.043 0.429688,-0.0859 0.527344,-0.0898 0.574218,-0.12891 0.671875,-0.12891 0.671875,-0.17187 0.765625,-0.17188"
       id="path14187" />
    <path
       style="fill:none;stroke:#000000;stroke-width:1.41;stroke-linecap:round;stroke-linejoin:round;stroke-miterlimit:10;stroke-opacity:1"
       d="m 85.785156,163.91016 -0.04687,0.47265 0.144531,0.5625 0.09375,0.38672 0.09766,0.42969 0.09375,0.43359 0.144531,0.47266 0.09766,0.47265 0.09375,0.47657 0.09766,0.42968 0.04688,0.39063 v 0.38672 l 0.04687,0.34375 v 1.98437 l -0.04687,-0.30078 v -3.01953 l -0.04688,-0.64844 v -0.64453 l -0.09766,-0.64844 -0.04687,-0.6875 -0.09766,-0.64843 -0.09375,-0.64453 -0.04687,-0.60547 v -1.42188 l 0.09375,-0.38672 0.09766,-0.39062 0.144532,-0.34375 0.191406,-0.30078 0.191406,-0.25782 0.382812,-0.34765 0.476563,-0.17188 0.480469,0.12891 0.429687,0.30469 0.335938,0.34375 0.238281,0.42968 0.09766,0.30079 0.04687,0.30468 v 0.99219 l -0.09375,0.60156 -0.191406,0.47266 -0.335937,0.34766 -0.480469,0.25781 -0.476563,0.17187 -0.433594,0.043 -0.382812,-0.17187 -0.238281,-0.34375 -0.144531,-0.47657 V 162.918"
       id="path14189" />
    <path
       style="fill:none;stroke:#000000;stroke-width:1.41;stroke-linecap:round;stroke-linejoin:round;stroke-miterlimit:10;stroke-opacity:1"
       d="m 92.78125,159.85547 0.382812,0.0859 0.09375,0.34765 0.289063,0.34375 0.191406,0.38672 0.191407,0.47656 0.144531,0.30078 0.09375,0.30079 0.09766,0.30078 0.144531,0.51953 0.04687,0.30078 0.09375,0.5625 0.05078,0.47266 v 0.34375 l -0.433593,0.43359 -0.382813,0.043 h -1.53125 l -0.574218,0.043 -0.527344,0.0859 -0.335938,0.17188 -0.238281,0.21484 0.332031,0.38672 0.480469,0.21875 0.671875,0.043 0.765625,-0.17187 0.480469,-0.21875 0.476562,-0.21485 0.433594,-0.25781 0.476562,-0.25781 0.429688,-0.25782"
       id="path14191" />
    <path
       style="fill:none;stroke:#000000;stroke-width:1.41;stroke-linecap:round;stroke-linejoin:round;stroke-miterlimit:10;stroke-opacity:1"
       d="m 99.964844,159.68359 -0.382813,0.34375 -0.289062,0.51953 -0.140625,0.30079 -0.09766,0.34375 -0.04688,0.34765 -0.05078,0.30078 v 0.64844 l 0.09766,0.42969 0.335937,0.25781 0.382813,0.043 0.429696,-0.17188 0.52734,-0.34375 0.24219,-0.21484 0.28515,-0.21875 0.33594,-0.42969 0.14453,-0.34375 0.42969,0.30078 0.14453,0.38672 0.19141,0.51953 0.14453,0.5586 0.1914,0.6914 0.14454,0.77344 0.14062,0.77735 0.14453,0.86328 0.0977,0.8164 0.0937,0.86328 0.0469,0.77735 0.0508,0.77344 v 0.73437 l -0.0508,0.69141 -0.0469,0.64453 -0.14453,0.5625 -0.19141,0.51562 -0.23828,0.42969 -0.28906,0.39063 -0.28516,0.30078 -0.33594,0.25781 -0.33593,0.17187 -0.33594,0.13282 -0.38281,0.0859 -0.33594,0.043 h -0.33203 l -0.335945,-0.043 -0.335938,-0.0859 -0.480469,-0.34766 -0.285156,-0.55859"
       id="path14193" />
    <path
       style="fill:none;stroke:#000000;stroke-width:1.41;stroke-linecap:round;stroke-linejoin:round;stroke-miterlimit:10;stroke-opacity:1"
       d="m 106.38281,161.71094 0.0977,-0.30078 0.33594,-0.30469 0.33203,-0.12891 0.43359,-0.043 0.52735,-0.043 1.14843,-0.17187 0.52735,-0.25781 0.23828,-0.21485 0.33594,-0.34765 0.14453,-0.34375 v -0.47266 l -0.0977,-0.51953 -0.23828,-0.42969 -0.28906,-0.25781 -0.42969,-0.043 -0.28906,0.0859 -0.38282,0.38672 -0.1914,0.34375 -0.14453,0.43359 -0.0937,0.55859 -0.0977,0.64844 v 1.37891 l 0.0977,0.64453 0.14453,0.60547 0.23828,0.60156 0.33594,0.5625 0.42968,0.42969 0.52735,0.34765 0.625,0.21485 0.62109,0.0859 0.71875,-0.0859 0.76563,-0.26172"
       id="path14195" />
    <path
       style="fill:none;stroke:#000000;stroke-width:1.41;stroke-linecap:round;stroke-linejoin:round;stroke-miterlimit:10;stroke-opacity:1"
       d="m 134.59766,122.91016 v 0.34765 l 0.14062,0.42969 0.24219,0.47656 0.1914,0.30078 0.19141,0.34375 0.19141,0.38672 0.14453,0.47657 0.14453,0.47265 0.14062,0.5625 0.14454,0.64453 0.14453,0.64844 0.14453,0.6875 0.0937,0.69141 0.14453,0.73437 0.0977,0.73047 0.14062,0.77734 0.14453,0.77344 0.14453,0.77734 0.19141,0.77735 0.14453,0.8164 0.19141,0.86329 0.1914,0.82031 0.14453,0.8164 0.14063,0.77735 0.19141,0.73437 0.14453,0.73047 0.1914,0.64844 0.14453,0.55859 0.0977,0.51953 0.0937,0.47266 0.0977,0.43359 v 0.38672 l 0.0469,0.30078 v 1.98438 l -0.0469,0.47266 -0.0508,0.47656 -0.0469,0.34375 -0.23828,-0.51953"
       id="path14197" />
    <path
       style="fill:none;stroke:#000000;stroke-width:1.41;stroke-linecap:round;stroke-linejoin:round;stroke-miterlimit:10;stroke-opacity:1"
       d="m 136.08203,124.12109 0.47656,0.043 h 0.4336 l 0.42968,-0.13281 0.52735,-0.21484 0.33594,-0.12891 0.33593,-0.0859 0.38282,-0.043 0.42968,-0.0859 0.48047,-0.043 0.47656,-0.043 h 1.10547 l 0.66797,-0.043 1.4375,-0.0859 0.81641,-0.0859 0.85937,-0.0859 0.91016,-0.0859 0.91016,-0.043 h 9.00781 l 1.0039,0.043 0.95704,0.0859 0.96093,0.043 0.91016,0.0859 0.95703,0.0859 0.91016,0.043 h 0.95703 l 0.95703,0.043 1.00781,-0.043 1.00391,-0.0859 1.10156,-0.0859 1.10156,-0.12891 1.15235,-0.13281 1.19531,-0.21485 1.24609,-0.25781 1.2461,-0.34375 1.29297,-0.34375 1.29296,-0.39062 1.2461,-0.34375 1.24609,-0.38672 1.24219,-0.39063 2.39844,-0.77344 1.14843,-0.30468 1.10157,-0.30078 1.05468,-0.21485 1.00391,-0.21484 0.91016,-0.17188 0.86328,-0.1289 0.8125,-0.0898 0.76953,-0.043 0.66797,-0.043 h 3.16406 l 0.47656,0.043 0.4336,0.043 0.42968,0.043 h 0.42969 l 0.4336,0.0469 h 1.33984 l 0.42969,0.043 h 2.63672 l 0.42968,-0.043 0.42969,-0.0469 0.43359,-0.043 0.42969,-0.0859 0.38281,-0.0859 0.38282,-0.043 0.38672,-0.043 0.33203,-0.0859 0.52734,-0.0859 h 2.39453 l 0.38281,0.1289 0.33594,0.12891 0.33594,0.17187 0.33594,0.0898 0.28906,0.1289 0.33203,0.17188 0.43359,0.043 0.52735,0.043 0.62109,0.043 0.33594,-0.043 1.14844,-0.12891 0.33593,-0.043 h 0.33594 l 0.57422,-0.0859 0.52734,-0.043 h 1.4375 l 0.57422,-0.043 h 0.33594 l 0.57422,-0.13282 0.57422,-0.0859 0.62109,-0.0859 0.57813,-0.17188 0.28515,-0.0859 0.57422,-0.12891 h 2.15625 l 0.33594,0.043 h 1.33984 l 0.38282,0.043 0.33593,0.043 0.38282,-0.0859 0.48046,-0.043 0.28907,-0.12891 0.38281,-0.0859 0.33203,-0.043 h 0.81641 l 0.33593,-0.0859 0.42969,-0.043 0.42969,-0.12891 0.48047,-0.30468 0.28906,-0.12891 0.33594,-0.12891 0.14062,0.47266 v 1.07813 l 0.0508,0.77734 0.0469,0.94922 0.0469,1.12109 v 1.20703 l 0.0469,1.33594 0.0977,1.42188 0.14453,1.46484 0.14062,1.51172 0.19531,1.50781 0.14063,1.42187 0.14453,1.42188 0.14453,1.33594 0.14453,1.29297 0.19141,1.16406 0.19141,1.07812 0.23828,0.94922 0.23828,0.86328 0.1914,0.73047 0.24219,0.64844 0.19141,0.55859 0.1914,0.4336 0.14454,0.34375"
       id="path14199" />
    <path
       style="fill:none;stroke:#000000;stroke-width:1.41;stroke-linecap:round;stroke-linejoin:round;stroke-miterlimit:10;stroke-opacity:1"
       d="m 142.5,146.32031 0.38281,-0.043 0.33594,-0.0859 0.42969,-0.17188 0.57422,-0.21484 0.43359,-0.0859 0.42969,-0.13281 0.52734,-0.0859 0.52734,-0.12891 0.6211,-0.1289 0.71875,-0.0859 0.71875,-0.12891 0.8164,-0.0859 0.91016,-0.12891 0.95703,-0.12891 0.95703,-0.0859 1.05469,-0.0859 1.10156,-0.0898 1.14844,-0.0859 1.15234,-0.043 h 5.02735 l 1.29297,-0.043 h 1.34375 l 1.29297,-0.043 1.33984,-0.043 1.39062,-0.043 h 20.3086 l 1.10156,-0.043 1.14844,-0.043 1.05469,-0.043 h 12.02343 l 0.57422,-0.043 1.58203,-0.12891 0.47657,-0.0859 0.52734,-0.0859 0.48047,-0.0859 0.47656,-0.0859 0.43359,-0.0859 0.47657,-0.0859 0.48047,-0.13282 0.48046,-0.1289 0.47657,-0.12891 0.48047,-0.1289 0.47656,-0.0859 0.48047,-0.12891 0.42968,-0.1289 0.4336,-0.12891 0.42969,-0.0859 0.38281,-0.0859 0.38281,-0.043 0.38281,-0.0469 0.38672,-0.043 0.6211,-0.0859 1.05468,-0.0859 h 1.00391 l 0.67187,0.043 h 1.2461 l 0.47656,-0.043 0.48047,-0.043 0.48047,-0.0859 0.47656,-0.12891 0.52734,-0.17187 0.52735,-0.12891 0.52734,-0.21484 0.57422,-0.17188 0.57422,-0.17578 0.52734,-0.17187 0.48047,-0.21485 0.42969,-0.17187 0.38281,-0.17188 0.33594,-0.17187 0.28906,-0.0859 0.38281,-0.0898 0.33594,-0.043"
       id="path14201" />
    <path
       style="fill:none;stroke:#000000;stroke-width:1.41;stroke-linecap:round;stroke-linejoin:round;stroke-miterlimit:10;stroke-opacity:1"
       d="m 145.32422,153.77734 -0.14063,0.30469 -0.28906,-0.0898 -0.42969,-0.043 h -0.57422 l -0.57812,0.0859 -0.33203,0.0898 -0.57813,0.17187 -0.42968,0.25782 -0.28516,0.25781 v 0.38672 l 0.33203,0.30469 0.28906,0.21484 0.38282,0.21484 0.42968,0.25782 0.48047,0.25781 0.52735,0.26172 0.52734,0.25781 0.52734,0.30078 0.47657,0.30078 0.48046,0.30469 0.42969,0.34375 0.4336,0.34375 0.33593,0.39062 0.47657,0.77344 0.14453,0.39063 0.0937,0.42968 0.0508,0.38672 v 0.82032 l -0.0508,0.42968 -0.0937,0.39063 -0.14453,0.34375 -0.19141,0.30078 -0.28516,0.25781 -0.28906,0.17578 -0.33594,0.12891 -0.38281,0.0859 -0.38281,0.043 h -0.42969 l -0.48047,-0.0859 -0.42969,-0.12891 -0.48046,-0.17578 -0.48047,-0.21484 -0.42969,-0.21485 -0.42969,-0.25781 -0.33594,-0.30078 -0.28906,-0.26172 -0.28515,-0.25781 -0.33594,-0.42969 -0.0469,-0.34766 0.19141,-0.30078 0.52344,-0.30078 0.33593,-0.1289"
       id="path14203" />
    <path
       style="fill:none;stroke:#000000;stroke-width:1.41;stroke-linecap:round;stroke-linejoin:round;stroke-miterlimit:10;stroke-opacity:1"
       d="m 157.58984,152.44141 v -0.38672 l -0.28906,0.38672 -0.0937,0.30078 -0.0508,0.39062 -0.0937,0.47266 -0.0977,0.47656 -0.0937,1.11719 v 2.37109 l 0.0937,0.5625 0.0977,0.51563 0.19141,0.51953 0.14453,0.47265 0.1914,0.4336 0.14063,0.38672 0.14453,0.34375 0.0977,0.34375 0.1914,0.47656"
       id="path14205" />
    <path
       style="fill:none;stroke:#000000;stroke-width:1.41;stroke-linecap:round;stroke-linejoin:round;stroke-miterlimit:10;stroke-opacity:1"
       d="m 154.66797,157.48437 0.38281,-0.38671 0.38281,-0.17188 0.42969,-0.21484 0.52734,-0.21485 0.67188,-0.26172 0.76562,-0.30078 0.8125,-0.30078 0.86329,-0.25781 0.86328,-0.30469 0.86328,-0.21484 0.85937,-0.21485 0.76953,-0.21484 0.66797,-0.12891"
       id="path14207" />
    <path
       style="fill:none;stroke:#000000;stroke-width:1.41;stroke-linecap:round;stroke-linejoin:round;stroke-miterlimit:10;stroke-opacity:1"
       d="m 165.10937,156.83984 h -0.38281 l 0.0469,0.30078 0.28906,0.30079 0.28516,0.43359 0.33593,0.55859 0.19141,0.25782 0.23828,0.34765 0.24219,0.30078 0.1914,0.30078 0.19141,0.25782 0.19141,0.26172 0.23828,0.34375 0.0977,-0.42969 v -1.29688 l 0.0937,-0.34375 0.0977,-0.34375 0.14063,-0.34375 0.14453,-0.39062 0.38281,-0.6875 0.28906,-0.30469 0.28906,-0.34375 0.33204,-0.25781 0.33593,-0.25781 0.33594,-0.21485 0.28906,-0.0898 0.33203,-0.0859"
       id="path14209" />
    <path
       style="fill:none;stroke:#000000;stroke-width:1.41;stroke-linecap:round;stroke-linejoin:round;stroke-miterlimit:10;stroke-opacity:1"
       d="m 173.82812,156.83984 -0.1914,0.25782 -0.0977,0.34375 -0.0469,0.39062 0.0937,0.42969 0.33593,0.34375 0.48047,0.34765 0.33594,0.12891 0.33203,0.0859 0.38672,0.0859 0.76563,0.0859 0.38281,-0.043 0.33594,-0.043 0.38281,-0.12891 0.28515,-0.17188 0.28907,-0.21875 0.38281,-0.51562 0.0977,-0.34375 0.0937,-0.30469 0.0469,-0.30078 v -0.30078 l -0.0469,-0.51953 -0.0469,-0.51563 -0.0469,-0.42968"
       id="path14211" />
    <path
       style="fill:none;stroke:#000000;stroke-width:1.41;stroke-linecap:round;stroke-linejoin:round;stroke-miterlimit:10;stroke-opacity:1"
       d="m 186.375,153.99219 -0.33203,0.043 -0.4336,0.21875 -0.52734,0.42968 -0.23828,0.30078 -0.23828,0.34766 -0.19141,0.34375 -0.14453,0.38672 -0.14453,0.43359 -0.0977,0.42969 -0.0469,0.38672 v 0.39062 l 0.0977,0.34375 0.14454,0.34375 0.1914,0.25782 0.28516,0.26172 0.33594,0.21484 0.38281,0.17187 0.38281,0.0859 0.48047,0.043 h 0.52734 l 0.57422,-0.12891 0.6211,-0.17187 0.625,-0.30469"
       id="path14213" />
    <path
       style="fill:none;stroke:#000000;stroke-width:1.41;stroke-linecap:round;stroke-linejoin:round;stroke-miterlimit:10;stroke-opacity:1"
       d="m 194.13672,150.89062 0.0469,0.42969 0.0977,0.30078 0.14062,0.4336 0.14454,0.51562 0.14453,0.5625 0.14453,0.64453 0.14453,0.64844 0.0937,0.64453 0.0977,0.60547 0.14062,0.60156 0.14453,0.60547 0.14453,0.51563 0.19141,0.51953 0.0977,0.47265 0.0937,0.38672 0.0469,0.34766 v 0.30078 l -0.0937,0.38672"
       id="path14215" />
    <path
       style="fill:none;stroke:#000000;stroke-width:1.41;stroke-linecap:round;stroke-linejoin:round;stroke-miterlimit:10;stroke-opacity:1"
       d="m 192.89062,156.32031 0.23829,-0.30078 0.57421,-0.043 0.38672,-0.043 0.47657,-0.0859 0.625,-0.12891 0.66796,-0.17188 0.76954,-0.21484 0.76562,-0.17578 0.76563,-0.21484"
       id="path14217" />
    <path
       style="fill:none;stroke:#000000;stroke-width:1.41;stroke-linecap:round;stroke-linejoin:round;stroke-miterlimit:10;stroke-opacity:1"
       d="m 207.69141,163.30469 0.23828,0.21484 0.0977,-0.38672 -0.0469,-0.51562 v -0.39063 l -0.0508,-0.42969 -0.0937,-0.47265 -0.0469,-0.47656 -0.0508,-0.5586 -0.0469,-0.51953 -0.0469,-0.60156 v -4.35547 l 0.0469,-0.60156 0.14453,-0.51953 0.14453,-0.51563 0.1914,-0.51953 0.19141,-0.47266 0.23828,-0.42968 0.23828,-0.39063 0.19141,-0.30078 0.24219,-0.25781 0.23828,-0.21485 0.48047,-0.26172 0.47656,-0.0859 h 0.48047 l 0.38281,0.17187 0.33594,0.4336 0.1914,0.51562 0.0469,0.30469 v 0.51562 l -0.0469,0.30078 -0.1914,0.5625 -0.19141,0.25782 -0.23828,0.30078 -0.28906,0.21484 -0.33594,0.21485 -0.33594,0.17578 -0.28515,0.1289 -0.33594,0.12891 -0.28906,0.0859 -0.47657,0.043 -0.33593,-0.043"
       id="path14219" />
    <path
       style="fill:none;stroke:#000000;stroke-width:1.41;stroke-linecap:round;stroke-linejoin:round;stroke-miterlimit:10;stroke-opacity:1"
       d="m 214.875,147.35547 0.19531,0.34375 0.0469,0.43359 0.0937,0.51563 0.0977,0.34375 0.0937,0.34765 0.0508,0.38672 0.0937,0.38672 0.0977,0.39063 0.0469,0.38671 0.0937,0.38672 0.0508,0.39063 0.0469,0.38672 0.0977,0.34375 0.0469,0.34375 0.14453,0.47656 v 0.64453 l -0.38671,0.12891 h -0.47657 l -0.52734,-0.043 -0.57422,-0.043 h -0.57422 l -0.43359,0.0859 -0.28516,0.30468 v 0.34375 l 0.23828,0.34375 0.48047,0.34766 0.28516,0.17188 0.38281,0.0859 0.38281,0.043 h 0.38672 l 0.42969,-0.0859"
       id="path14221" />
    <path
       style="fill:none;stroke:#000000;stroke-width:1.41;stroke-linecap:round;stroke-linejoin:round;stroke-miterlimit:10;stroke-opacity:1"
       d="m 221.62891,149.85547 -0.33204,0.17187 -0.0977,0.34375 -0.23828,0.47657 -0.28907,0.42968 -0.14453,0.39063 -0.0469,0.30078 0.38281,0.17187 h 0.96094 l 0.47656,0.21485 0.23828,0.21484 0.24219,0.34766 0.19141,0.47265 0.1914,0.51563 0.19141,0.60547 0.14453,0.60156 0.19141,0.69141 0.0937,0.73437 0.14453,0.77344 0.0469,0.77734 0.0508,0.82032 v 0.8164 l -0.0508,0.82031 -0.0937,0.73438 -0.0977,0.64453 -0.19141,0.60547 -0.23828,0.55859 -0.23828,0.51563 -0.33594,0.43359 -0.33594,0.34375 -0.33594,0.21485 -0.28515,0.1289 -0.57813,0.043 -0.38281,-0.34375 -0.19141,-0.34375 -0.0937,-0.42969 -0.0508,-0.51953 0.0508,-0.55859 0.0937,-0.64844 0.24219,-0.73437"
       id="path14223" />
    <path
       style="fill:none;stroke:#000000;stroke-width:1.41;stroke-linecap:round;stroke-linejoin:round;stroke-miterlimit:10;stroke-opacity:1"
       d="m 224.02734,155.97656 0.38282,-0.42969 0.33593,-0.34765 0.47657,-0.47266 0.48046,-0.38672 0.42969,-0.34765 1.14844,-1.03125 0.43359,-0.30469 0.42969,-0.30078 0.48047,-0.30078 0.52734,-0.25782 0.47657,-0.30468 0.43359,-0.25782 0.42969,-0.25781 0.38281,-0.25781 0.33594,-0.26172 0.28906,-0.25781 0.19141,-0.25781 0.23828,-0.51563 v -0.39062 l -0.19141,-0.30079 -0.43359,-0.0859 -0.52344,0.1289 -0.33594,0.17188 -0.38281,0.25781 -0.33594,0.34766 -0.33594,0.42968 -0.28906,0.47266 -0.23828,0.51953 -0.0937,0.51563 v 0.5625 l 0.0937,0.51562 0.28906,0.51953 0.42969,0.42969 0.57422,0.42969 0.76562,0.26172 0.86329,0.17187 1.00781,-0.043 1.05078,-0.17187 1.15234,-0.39063"
       id="path14225" />
    <path
       style="fill:none;stroke:#000000;stroke-width:1.41;stroke-linecap:round;stroke-linejoin:round;stroke-miterlimit:10;stroke-opacity:1"
       d="m 261.38672,130.11328 0.38281,-0.0898 0.43359,0.17578 0.38282,0.1289 0.47656,0.17188"
       id="path14227" />
    <path
       style="fill:none;stroke:#000000;stroke-width:1.41;stroke-linecap:round;stroke-linejoin:round;stroke-miterlimit:10;stroke-opacity:1"
       d="m 292.57031,130.37109 -0.42969,0.0859 0.23829,0.25781 0.48046,0.0859 h 0.71875"
       id="path14229" />
    <path
       style="fill:none;stroke:#000000;stroke-width:1.41;stroke-linecap:round;stroke-linejoin:round;stroke-miterlimit:10;stroke-opacity:1"
       d="m 311.53906,130.45703 h -0.33594 l 0.42969,0.043"
       id="path14231" />
    <path
       style="fill:none;stroke:#000000;stroke-width:1.41;stroke-linecap:round;stroke-linejoin:round;stroke-miterlimit:10;stroke-opacity:1"
       d="m 323.17969,129.46484 -0.0977,-0.30078 0.38281,-0.1289 0.38282,-0.0859 0.43359,-0.043 h 0.91016"
       id="path14233" />
    <path
       style="fill:none;stroke:#000000;stroke-width:1.41;stroke-linecap:round;stroke-linejoin:round;stroke-miterlimit:10;stroke-opacity:1"
       d="m 355.98828,114.9375 0.33594,0.25781 0.0508,0.30078 0.0469,0.4336 0.0937,0.47265 0.0977,0.5625 0.0937,0.6875 0.14453,0.77735 0.19141,0.85937 0.14453,0.90625 0.14453,0.99219 0.57422,3.10547 0.23828,1.03516 0.19141,0.94531 0.14453,0.94922 0.1914,0.90625 0.19141,0.86328 0.14453,0.8164 0.19141,0.82032 0.0976,0.77734 0.0937,0.73047 0.0977,0.6914 v 0.6875 l 0.0469,0.64844 v 3.01563 l 0.0469,0.30468 0.0469,0.42969 0.14453,-0.38672 0.0469,-0.39062"
       id="path14235" />
    <path
       style="fill:none;stroke:#000000;stroke-width:1.41;stroke-linecap:round;stroke-linejoin:round;stroke-miterlimit:10;stroke-opacity:1"
       d="m 357.52344,114.11719 -0.33594,0.30078 -0.19141,0.26172 -0.0976,0.30078 0.33593,0.043 0.4336,0.043 0.47656,0.043 h 0.625 l 0.38281,0.043 h 1.05469 l 0.66797,0.043 h 0.71875 l 0.86328,-0.043 0.91016,-0.0859 1.0039,-0.17188 1.10157,-0.17187 1.15234,-0.21875 1.24609,-0.17188 1.33985,-0.21484 1.39062,-0.21485 1.48438,-0.21484 1.53125,-0.21484 1.53125,-0.21875 1.48828,-0.21485 1.53125,-0.21484 2.96875,-0.34375 1.48437,-0.12891 2.875,-0.17187 1.33985,-0.043 1.34375,-0.0469 h 3.8789 l 1.2461,-0.043 h 1.29297 l 1.24609,-0.043 1.29297,-0.043 1.24609,-0.043 2.58594,-0.17188 2.58594,-0.0859 h 1.24609 l 1.24609,-0.043 h 3.54297 l 1.05469,0.043 1.00391,0.043 0.91015,0.043 0.86328,0.0859 0.81641,0.0859 0.8125,0.043 0.71875,0.0859 0.71875,0.043 h 0.67188 l 0.66796,0.0469 0.625,0.043 h 0.66797 l 0.625,0.043 h 5.02735 l 0.625,0.043 0.57422,0.0859 0.57421,0.12891 0.57422,0.0859 0.52735,0.043 0.52734,0.0859 0.48047,0.0859 0.52344,0.043 0.48047,0.0859 1.05468,0.0859 0.52735,0.0859 0.52734,0.043 0.52344,0.043 0.52734,0.0859 0.57422,0.043 h 0.57813 l 0.62109,0.0469 h 3.35156 l 0.71875,0.043 h 0.625 l 0.6211,0.043 h 0.57421 l 0.48047,0.043 0.52735,0.043 0.47656,0.043 0.96094,0.0859 0.47656,0.043 h 0.48047 l 0.48047,0.043 h 5.125 l 0.28515,-0.0859 0.28907,-0.1289 0.28515,-0.17188 0.33594,-0.13281 0.38281,-0.043 0.33594,-0.043 0.33594,-0.0859 0.42968,-0.1289 0.4336,-0.17188 0.38281,-0.17187 0.42969,-0.12891 0.43359,-0.0859 0.38281,-0.043 0.47657,-0.043 0.52734,-0.12891 0.52734,-0.0898 0.33594,-0.12891 0.33594,-0.0859 0.76562,-0.17187 0.42969,-0.043 h 0.48047 l 0.48047,-0.0859 0.42969,-0.043 0.42968,-0.0859 0.4336,-0.1289 1.14844,-0.25781 0.33593,-0.043 0.57422,-0.0898 0.42969,-0.0859 0.48047,-0.0859 0.57422,-0.043 h 0.57422 l 0.52734,-0.043 0.42969,-0.043 0.48047,-0.0859 h 0.76562 l 0.28906,0.12891 -0.28906,-0.25781 -0.14453,0.42969 v 3.57812 l -0.0469,0.90625 v 0.99219 l -0.0469,1.03515 -0.0469,1.07813 v 6.33594 l -0.0508,0.90625 -0.0469,0.85937 -0.0937,0.82031 -0.0977,0.73438 -0.0937,0.64453 -0.0508,0.5625 -0.0469,0.51562 v 1.20704 l -0.0469,0.30078 -0.0469,0.39062 -0.19532,0.25781"
       id="path14237" />
    <path
       style="fill:none;stroke:#000000;stroke-width:1.41;stroke-linecap:round;stroke-linejoin:round;stroke-miterlimit:10;stroke-opacity:1"
       d="m 364.70703,138.08594 h 0.81641 l 0.57422,-0.043 0.38281,-0.043 0.42969,-0.043 0.52734,-0.0859 0.625,-0.0859 0.71875,-0.0859 0.85937,-0.12891 0.91016,-0.0859 1.10156,-0.1289 1.19922,-0.0898 1.33985,-0.1289 1.53515,-0.0859 1.625,-0.043 1.72656,-0.043 1.77344,-0.043 1.91406,-0.043 1.91797,-0.043 4.02344,-0.17188 4.02344,-0.25781 1.96094,-0.12891 2.01171,-0.17187 2.01563,-0.13281 3.82812,-0.34375 1.82032,-0.17188 1.77343,-0.0859 1.62891,-0.0859 1.53125,-0.043 1.4375,-0.043 h 9.96484 l 1.14844,0.043 1.19922,0.0859 1.24609,0.0859 1.19532,0.0859 1.24609,0.0859 1.19922,0.1289 1.19531,0.12891 1.14844,0.12891 1.19922,0.13281 1.14844,0.1289 1.10156,0.12891 1.15234,0.0859 1.05078,0.0859 1.05469,0.043 1.00781,0.043 h 0.95703 l 0.95704,0.043 h 1.72656 l 0.8125,-0.043 1.53125,-0.17187 1.34375,-0.25781 0.57422,-0.13282 0.57422,-0.0859 0.52734,-0.0859 0.48047,-0.0859 0.42969,-0.043 0.38281,-0.043 0.57422,-0.043 0.48047,-0.043 0.57421,-0.043 h 0.38282 l 0.38281,-0.043 0.43359,-0.043 0.52344,-0.043 0.48047,-0.0859 0.57422,-0.043 0.52734,-0.043 h 0.52735 l 0.52734,-0.043 h 1.82031 l 0.38281,-0.043 h 0.38282 l 0.33593,-0.043 h 0.33594 l 0.6211,-0.043 0.625,-0.0859 0.33203,-0.043 0.33593,-0.043 0.38282,-0.043 0.33593,-0.0469 0.4336,-0.043 0.38281,-0.043 0.42969,-0.0859 0.42969,-0.043 0.43359,-0.043 0.38281,-0.043 0.33594,-0.043 h 1.29297 -0.38281"
       id="path14239" />
    <path
       style="fill:none;stroke:#000000;stroke-width:1.41;stroke-linecap:round;stroke-linejoin:round;stroke-miterlimit:10;stroke-opacity:1"
       d="m 370.3125,147.82812 0.38281,-0.1289 0.42969,-0.043 0.28906,-0.0859 0.42969,-0.1289 -0.28516,-0.0859 -0.33593,-0.043 h -0.42969 l -0.52735,0.043 -0.52734,0.0859 -0.48047,0.17187 -0.38281,0.17188 -0.28906,0.25781 -0.14063,0.34765 0.0937,0.34375 0.4336,0.38672 0.33203,0.21875 0.38672,0.21485 0.85937,0.42968 0.48047,0.21485 0.42969,0.21484 0.38281,0.21875 0.38281,0.25781 0.38672,0.21485 0.28516,0.21484 0.28906,0.17188 0.33203,0.39062 0.14453,0.42969 -0.0937,0.38672 -0.24219,0.30469 -0.52343,0.34375 -0.33594,0.17187 -0.38281,0.21484 -0.4336,0.12891 -0.33593,0.17188 -0.33204,0.0898 -0.33593,0.12891 -0.57422,0.1289 -0.28906,0.0859 -0.38282,0.043 h -0.33593 L 368.875,154.2109 v -0.4336 l 0.14453,-0.55859"
       id="path14241" />
    <path
       style="fill:none;stroke:#000000;stroke-width:1.41;stroke-linecap:round;stroke-linejoin:round;stroke-miterlimit:10;stroke-opacity:1"
       d="m 381.71094,144.89844 -0.0937,0.30078 -0.14453,0.51953 -0.0469,0.34375 v 1.85156 l -0.0469,0.51953 v 0.5586 l -0.0508,0.51953 v 2.19922 l 0.0508,0.34375 v 0.30078 l 0.0469,0.42969"
       id="path14243" />
    <path
       style="fill:none;stroke:#000000;stroke-width:1.41;stroke-linecap:round;stroke-linejoin:round;stroke-miterlimit:10;stroke-opacity:1"
       d="m 378.74219,148.73437 -0.33594,-0.17187 0.33594,-0.0859 0.57422,-0.0859 0.38281,-0.0859 0.43359,-0.0859 0.47656,-0.0859 0.52735,-0.0898 0.57422,-0.0859 0.57812,-0.043 h 1.67578 l 0.47657,-0.043"
       id="path14245" />
    <path
       style="fill:none;stroke:#000000;stroke-width:1.41;stroke-linecap:round;stroke-linejoin:round;stroke-miterlimit:10;stroke-opacity:1"
       d="m 386.69531,149.59766 -0.0976,0.34375 -0.0469,0.51562 v 0.90625 l 0.14453,0.51953 0.28516,0.42969 0.14453,0.34375 0.0469,0.39062 -0.0469,-0.34765 0.0469,-0.51563 0.14454,-0.34375 0.14453,-0.39062 0.1914,-0.42969 0.19141,-0.47266 0.23828,-0.43359 0.24219,-0.47266 0.23828,-0.43359 0.28516,-0.42969 0.28906,-0.38672 L 389.375,148 l 0.28906,-0.30078 0.38281,-0.38672 0.28907,-0.0859 h 0.42968 l 0.33594,0.12891"
       id="path14247" />
    <path
       style="fill:none;stroke:#000000;stroke-width:1.41;stroke-linecap:round;stroke-linejoin:round;stroke-miterlimit:10;stroke-opacity:1"
       d="m 394.21484,148.90625 -0.33593,0.0859 -0.14454,0.39062 0.19141,0.30078 0.33594,0.30078 0.48047,0.25782 0.57422,0.17187 0.62109,0.043 0.33594,-0.043 0.28906,-0.1289 0.28516,-0.12891 0.28906,-0.25781 0.38281,-0.51563 0.0937,-0.30469 0.0977,-0.30078 0.0469,-0.30078 -0.0469,-0.34375 -0.0469,-0.30469 -0.0976,-0.30078 -0.33594,-0.51562 -0.28516,-0.34766 -0.28906,-0.30078"
       id="path14249" />
    <path
       style="fill:none;stroke:#000000;stroke-width:1.41;stroke-linecap:round;stroke-linejoin:round;stroke-miterlimit:10;stroke-opacity:1"
       d="m 404.94531,146.10547 -0.33594,0.25781 -0.38281,0.34375 -0.24219,0.21875 -0.23828,0.25781 -0.23828,0.30078 -0.1914,0.25782 -0.19141,0.30078 -0.14453,0.30469 -0.0977,0.30078 -0.0469,0.34375 v 0.30468 l 0.1914,0.5586 0.42969,0.47265 0.28906,0.21875 0.67188,0.42969 0.38281,0.17188 0.42969,0.1289 0.43359,0.0859 0.47656,0.0859 h 0.91016 l 0.43359,-0.043 0.42969,-0.043 0.38281,-0.0859 0.38282,-0.1289 0.33593,-0.12891 0.28516,-0.12891 0.28906,-0.21484"
       id="path14251" />
    <path
       style="fill:none;stroke:#000000;stroke-width:1.41;stroke-linecap:round;stroke-linejoin:round;stroke-miterlimit:10;stroke-opacity:1"
       d="m 414.23828,143.64844 -0.24219,0.34375 -0.1914,0.51953 -0.0469,0.30078 -0.0976,0.34375 -0.0469,0.34375 v 0.82031 l 0.0977,0.38672 0.0937,0.39063 0.28906,0.77343 0.14453,0.39063 0.0937,0.34375 0.0977,0.30078 0.14062,0.47656 0.14453,0.30078"
       id="path14253" />
    <path
       style="fill:none;stroke:#000000;stroke-width:1.41;stroke-linecap:round;stroke-linejoin:round;stroke-miterlimit:10;stroke-opacity:1"
       d="m 412.60937,146.92578 v -0.30469 l 0.42969,-0.17187 0.33594,-0.0859 0.47656,-0.12891 0.52735,-0.1289 0.67187,-0.12891 0.71875,-0.1289 0.8125,-0.12891 0.91016,-0.13281 0.91015,-0.17188 0.91016,-0.21484 0.96094,-0.21485 0.85937,-0.25781"
       id="path14255" />
    <path
       style="fill:none;stroke:#000000;stroke-width:1.41;stroke-linecap:round;stroke-linejoin:round;stroke-miterlimit:10;stroke-opacity:1"
       d="m 434.35547,154.98437 -0.0977,0.30469 v 0.77344 l -0.0469,-0.30078 -0.0977,-0.47266 -0.0937,-0.30469 -0.14453,-0.38671 -0.14453,-0.42969 -0.19141,-0.47656 -0.14453,-0.51563 -0.14062,-0.5625 -0.19141,-0.60156 -0.14453,-0.64844 -0.14453,-0.64453 -0.0937,-0.64844 -0.0977,-0.64453 -0.0469,-0.64844 -0.0508,-0.60156 v -0.5625 l 0.0508,-0.55859 0.0937,-0.47657 0.0976,-0.47265 0.19141,-0.38672 0.1914,-0.34766 0.23829,-0.25781 0.28906,-0.25781 0.28515,-0.17188 0.28907,-0.0859 0.33593,-0.0859 h 0.6211 l 0.625,0.0859 0.52734,0.25781 0.47656,0.42969 0.23829,0.25781 0.1914,0.26172 0.14453,0.30078 0.0977,0.30078 0.0937,0.30078 v 0.60547 l -0.14063,0.51562 -0.19531,0.26172 -0.42969,0.42969 -0.28515,0.21484 -0.57813,0.25782 -0.33203,0.1289 -0.33594,0.0859 -0.33593,0.0898 -0.28907,0.0859 h -0.42968"
       id="path14257" />
    <path
       style="fill:none;stroke:#000000;stroke-width:1.41;stroke-linecap:round;stroke-linejoin:round;stroke-miterlimit:10;stroke-opacity:1"
       d="m 440.67578,144.51172 v 3.01562 l 0.0977,0.38672 0.0469,0.4336 0.0977,0.38671 0.0937,0.38672 0.0469,0.30469 0.0508,0.30078 0.0469,0.47266 -0.0977,0.30469 -0.42968,0.0859 -0.48047,-0.13281 -0.33203,-0.12891 -0.28907,-0.17187 -0.28906,-0.12891 -0.28516,-0.0859 -0.48046,-0.17188 -0.42969,-0.043 h -0.48047 l -0.0469,0.34375 0.0469,0.38672 0.28906,0.34766 0.52735,0.25781 0.33593,0.12891 0.38282,0.043 0.42968,0.0859 h 0.48047 l 0.52735,-0.0859 0.52343,-0.1289"
       id="path14259" />
    <path
       style="fill:none;stroke:#000000;stroke-width:1.41;stroke-linecap:round;stroke-linejoin:round;stroke-miterlimit:10;stroke-opacity:1"
       d="m 448.48437,145.89062 -0.38281,-0.21875 h -0.33594 l -0.38281,0.0898 -0.33594,0.25781 -0.33593,0.38672 -0.14063,0.42969 -0.0508,0.34765 0.0508,0.34375 0.38281,0.17188 h 0.42969 l 0.42969,-0.17188 0.38672,-0.17187 0.33203,-0.0859 0.33594,0.17188 0.14453,0.51562 0.0469,0.39063 0.0508,0.47265 0.0469,0.5625 0.0469,0.6875 v 0.73438 l -0.0469,0.73047 -0.0469,0.73437 -0.0976,0.77734 -0.14453,0.6875 -0.19141,0.69141 -0.19141,0.60156 -0.28515,0.51953 -0.24219,0.47266 -0.28516,0.38672 -0.28906,0.34766 -0.28515,0.25781 -0.24219,0.21484 -0.42969,0.21485 -0.33594,-0.12891 -0.14453,-0.60156 -0.0469,-0.39063 0.0937,-0.47265 0.0976,-0.51563 0.23828,-0.60547 0.28907,-0.60156 0.38281,-0.60547 0.42969,-0.64453 0.48047,-0.64844 0.48046,-0.60547 0.52735,-0.55859 0.52344,-0.55859 0.57812,-0.5625 0.57422,-0.51563 0.62109,-0.51953 0.57422,-0.47266 0.57422,-0.47656 1.05469,-0.85937 0.48047,-0.47657 0.42968,-0.42968 0.4336,-0.42969 0.33203,-0.4336 0.28906,-0.42968 0.28516,-0.38672 0.19531,-0.4336 0.14063,-0.42968 0.0508,-0.34375 v -0.34766 l -0.0508,-0.30078 -0.28516,-0.30078 -0.43359,-0.0859 -0.52344,0.21484 -0.38672,0.21485 -0.33203,0.34375 -0.38672,0.43359 -0.38281,0.47266 -0.33203,0.60547 -0.24219,0.60156 -0.19141,0.69141 -0.14453,0.64453 0.0508,0.64843 0.14063,0.60157 0.33593,0.60547 0.48047,0.55859 0.6211,0.43359 0.8164,0.38672 0.91016,0.25781 1.10156,0.12891 1.2461,-0.043 1.29296,-0.17187"
       id="path14261" />
    <path
       style="fill:none;stroke:#000000;stroke-width:1.41;stroke-linecap:round;stroke-linejoin:round;stroke-miterlimit:10;stroke-opacity:1"
       d="m 157.92187,111.44531 0.0508,0.38672 0.1914,0.30469 0.23828,0.21484 -0.33593,-0.39062 -0.23829,-0.38672 -0.38281,-0.51563 -0.1914,-0.30468 -0.23829,-0.30078 -0.28906,-0.34375 -0.28906,-0.30079 -0.33203,-0.39062 -0.38672,-0.34375 -0.38281,-0.38672 -0.42969,-0.34766 -0.48047,-0.34375 -0.52734,-0.34375 -0.57422,-0.30078 -0.57422,-0.30468 -0.57422,-0.30079 -0.62109,-0.30078 -0.67188,-0.25781 -0.71875,-0.26172 -0.71875,-0.25781 -0.76562,-0.21484 -0.71875,-0.17188 -0.76563,-0.17187 -0.76562,-0.17579 -0.71875,-0.17187 -0.76953,-0.17188 -0.8125,-0.0859 -0.81641,-0.0859 -0.8125,-0.0859 -0.86328,-0.043 -0.85938,-0.0859 -0.86328,-0.043 -0.91015,-0.043 h -0.95704 l -1.00781,-0.0859 -1.05469,-0.043 -1.10156,-0.043 -1.05078,-0.043 h -1.10547 l -2.20312,-0.0859 h -1.05078 l -0.96094,-0.043 h -4.45313 l -0.76562,0.043 -0.76563,0.0859 -0.76953,0.0859 -1.53125,0.25781 -0.71875,0.17188 -0.76562,0.17187 -0.71875,0.17188 -0.76563,0.17187 -0.71875,0.17579 -0.71875,0.21484 -0.67187,0.21484 -1.4375,0.51563 -0.66797,0.21875 -0.67188,0.25781 -0.67187,0.21484 -0.66797,0.25782 -0.625,0.25781 -0.66797,0.26172 -0.625,0.25781 -0.67187,0.25781 -0.66797,0.25782 -0.67188,0.30468 -0.67187,0.25782 -0.6211,0.30078 -0.62109,0.25781 -0.57812,0.30078 -0.57422,0.30469 -0.52735,0.30078 -0.52343,0.34375 -0.52735,0.34766 -0.48047,0.34375 -0.52734,0.30078 -0.47656,0.34375 -0.4336,0.30468 -0.38281,0.25782 -0.335938,0.25781 -0.335937,0.21484 -0.285156,0.25782 -0.242188,0.21875 -0.238281,0.25781 -0.285156,0.21484 -0.242188,0.25781 -0.285156,0.25782 -0.289062,0.30468 -0.285157,0.21485 -0.335937,0.25781 -0.289063,0.21484 -0.335937,0.21485 -0.285156,0.21875 -0.289063,0.21484 -0.285156,0.21485 -0.242188,0.21484 -0.238281,0.21484 -0.429688,0.34766 -0.289062,0.21484 -0.191406,0.42969 0.191406,-0.30078 0.04687,-0.38672 0.05078,-0.39062 0.140625,-0.51563 0.09766,-0.34375 0.09375,-0.34766 0.09766,-0.34375 0.04687,-0.38671 0.09766,-0.34766 0.09375,-0.38672 0.09766,-0.38672 0.09375,-0.34765 0.289063,-0.6875 0.09375,-0.34375 0.144531,-0.34766 0.09766,-0.30078 0.09375,-0.30078 0.191407,-0.51953 0.144531,-0.47266 0.144531,-0.42969 0.191406,-0.34765 0.09375,0.34765 -0.140625,0.47266 -0.144531,0.60547 -0.09766,0.38672 -0.04687,0.38671 -0.144531,0.4336 -0.09375,0.47265 -0.144532,0.47266 -0.09766,0.51953 -0.140625,0.51563 -0.144531,0.47656 -0.09766,0.51562 -0.140626,0.42969 -0.09766,0.4336 -0.09766,0.38671 -0.09375,0.30079 -0.04687,0.30468 v 0.73047 l 0.429687,0.12891 0.429688,0.0859 0.625,0.043 0.382812,-0.043 0.429688,-0.043 0.574219,-0.0859 0.578125,-0.17188 0.667968,-0.17187 0.71875,-0.17188 0.76563,-0.21484 0.8164,-0.26172 0.8125,-0.21484 0.81641,-0.21485 0.71875,-0.21484 0.66797,-0.21484 0.57812,-0.17188 0.47657,-0.13281 0.43359,-0.12891 0.33203,-0.0859"
       id="path14263" />
    <path
       style="fill:none;stroke:#000000;stroke-width:1.41;stroke-linecap:round;stroke-linejoin:round;stroke-miterlimit:10;stroke-opacity:1"
       d="m 63.753906,188.60937 0.238282,0.30469 v 3.6211 l 0.09375,0.64453 0.09766,0.73437 0.09766,0.77344 0.140625,0.82031 0.09766,0.82031 0.144531,0.81641 0.140626,0.82031 0.191406,0.86328 0.144531,0.86329 0.191406,0.94531 0.144531,0.94922 0.191407,0.94922 0.144531,1.03515 0.191406,0.99219 0.144532,1.03516 0.144531,0.98828 0.191406,0.99218 0.140625,0.99219 0.191406,0.94922 0.144532,0.99219 0.144531,0.90234 0.191406,0.90625 0.191406,0.86328 0.191407,0.82032 0.144531,0.73046 0.144531,0.69141 0.09375,0.64453 0.05078,0.5625 v 0.47266 l 0.04687,0.42969 v 1.03515 l -0.335937,-0.1289 -0.191407,-0.25782"
       id="path14265" />
    <path
       style="fill:none;stroke:#000000;stroke-width:1.41;stroke-linecap:round;stroke-linejoin:round;stroke-miterlimit:10;stroke-opacity:1"
       d="m 63.511719,187.57422 v 0.30469 l -0.04687,0.34375 -0.09375,0.34375 -0.242188,0.39062 -0.476562,0.94531 -0.242188,0.4336 -0.238281,0.38672 -0.191406,0.34375 -0.289063,0.30468 0.289063,-0.34765 0.238281,-0.30078 0.242188,-0.30079 0.285156,-0.38671 0.335937,-0.4336 0.335938,-0.42969 0.335937,-0.43359 0.332032,-0.47266 0.335937,-0.47265 0.335937,-0.4336 0.289063,-0.42968 0.285156,-0.38672 0.242188,-0.30469 0.191406,-0.25781 0.238281,-0.34375 0.191406,0.38672 0.09766,0.30078 0.191406,0.43359 0.238281,0.42969 0.238282,0.51953 0.289062,0.51563 0.335938,0.47265 0.332031,0.51953 0.386719,0.47266 0.429687,0.39062 0.382813,0.38672 0.429687,0.30078 0.335937,0.21485"
       id="path14267" />
    <path
       style="fill:none;stroke:#000000;stroke-width:1.41;stroke-linecap:round;stroke-linejoin:round;stroke-miterlimit:10;stroke-opacity:1"
       d="m 32.136719,232.02344 -0.140625,-0.4336 -0.144532,-0.42968 0.04688,0.47265 v 0.82031 l 0.04687,0.51563 0.05078,0.60547 0.09375,0.64453 0.09766,0.69141 0.144531,0.6914 0.09375,0.64453 0.144531,0.64844 0.191407,0.64453 0.09375,0.60547 0.09766,0.60156 L 33,239.35156 v 2.06641 l 0.04687,0.39062 0.05078,0.34375 0.04687,0.30078 0.191407,0.34766 0.335937,-0.30469 0.191406,-0.60156 0.144531,-0.47656 0.140626,-0.51563 0.242187,-0.64843 0.238281,-0.64454 0.289063,-0.64843 0.285156,-0.6875 0.335937,-0.64844 0.289063,-0.60156 0.285156,-0.51953 0.289063,-0.47266 0.238281,-0.34375 0.191406,-0.26172 0.382813,-0.30078 0.191406,0.25781 0.335938,0.60547 0.191406,0.42969 0.242187,0.51953 0.238281,0.51562 0.238282,0.5625 0.238281,0.51563 0.242187,0.47266 0.238282,0.47656 0.238281,0.42969 0.289063,0.43359 0.289062,0.38672 0.285156,0.34375 0.289063,0.34375 0.238281,0.26172 0.289062,0.17187 0.429688,0.21485 0.382812,0.043 0.289063,-0.17187"
       id="path14269" />
    <path
       style="fill:none;stroke:#000000;stroke-width:1.41;stroke-linecap:round;stroke-linejoin:round;stroke-miterlimit:10;stroke-opacity:1"
       d="m 44.640625,235.55859 0.335937,0.043 h 0.574219 l 0.335938,-0.043 0.382812,-0.13281 0.382813,-0.12891 0.382812,-0.21484 0.335938,-0.25781 0.382812,-0.21485 0.289063,-0.25781 0.238281,-0.26172 0.191406,-0.25781 0.191406,-0.51562 0.04688,-0.4336 -0.144532,-0.30078 -0.332031,-0.17187 h -0.527344 l -0.671875,0.17187 -0.382812,0.21484 -0.382813,0.30079 -0.382812,0.34765 -0.382813,0.47266 -0.335937,0.47656 -0.289063,0.51563 -0.238281,0.55859 -0.144531,0.5625 -0.04687,0.55859 0.04687,0.5625 0.144531,0.51563 0.144531,0.51953 0.238282,0.42969 0.335937,0.38672 0.382813,0.30468 0.429687,0.25782 0.527344,0.17187 0.527343,0.12891 0.574219,0.043 0.625,-0.043 0.621094,-0.0859 0.671875,-0.21484 0.667969,-0.30079 0.625,-0.34765 0.671875,-0.42969 0.621094,-0.42969 0.574218,-0.47656 0.527344,-0.51562 0.429688,-0.47657"
       id="path14271" />
    <path
       style="fill:none;stroke:#000000;stroke-width:1.41;stroke-linecap:round;stroke-linejoin:round;stroke-miterlimit:10;stroke-opacity:1"
       d="m 57.476562,233.1875 0.335938,0.30078 0.382812,0.38672 0.433594,0.47656 0.714844,0.77344 0.242188,0.25781 0.382812,0.47656 0.238281,0.42969 0.191407,0.38672 0.05078,0.30469 -0.195313,0.51562 -0.382812,0.30078 -0.238282,0.21875 -0.289062,0.12891 -0.332031,0.17188 -0.382813,0.17187 -0.335937,0.12891 -0.382813,0.1289 -0.382812,0.17188 -0.386719,0.1289 -0.332031,0.17579 -0.289063,0.17187 -0.382812,0.38672 -0.191407,0.30078 v 0.39063 l 0.238282,0.38671 0.433594,0.21485 0.621093,0.0859 0.429688,-0.043 0.527343,-0.0859 0.527344,-0.17188 0.621094,-0.30078 0.625,-0.34765 0.671875,-0.42969 0.667969,-0.47266 0.625,-0.5625"
       id="path14273" />
    <path
       style="fill:none;stroke:#000000;stroke-width:1.41;stroke-linecap:round;stroke-linejoin:round;stroke-miterlimit:10;stroke-opacity:1"
       d="m 70.792969,236.20312 -0.429688,-0.38671 -0.433593,-0.0859 -0.476563,-0.0859 -0.527344,-0.043 -0.480469,-0.0898 -0.429687,-0.0859 h -0.863281 l -0.429688,0.13281 -0.382812,0.30078 -0.191406,0.30079 -0.191407,0.38671 -0.191406,0.47657 -0.144531,0.55859 -0.144532,0.60547 -0.09375,0.64453 -0.05078,0.64844 v 0.60156 l 0.09766,0.5625 0.09375,0.51563 0.191406,0.47656 0.242187,0.38672 0.285157,0.30078 0.289062,0.25781 0.335938,0.17578 0.335937,0.0859 0.382813,-0.043 0.382812,-0.13281 0.382812,-0.21485 0.382813,-0.38671 0.335937,-0.47266 0.382813,-0.51953 0.285156,-0.64453 0.242188,-0.73438 0.191406,-0.77734 0.09375,-0.85938 0.05078,-0.86328 0.04687,-0.90625 -0.04687,-0.90625 -0.05078,-0.90234 -0.04687,-0.90625 -0.09375,-0.86328 -0.09766,-0.86328 -0.09766,-0.81641 -0.140626,-0.82031 -0.09766,-0.73438 -0.144531,-0.6875 -0.140625,-0.64844 -0.144531,-0.51562 -0.144531,-0.42969 -0.09375,-0.30469 -0.195313,-0.38671 0.05078,0.47265 0.144532,0.4336 0.191406,0.55859 0.191406,0.69141 0.238281,0.77343 0.285157,0.90625 0.289062,0.90625 0.335938,0.90625 0.285156,0.90235 0.335937,0.86328 0.382813,0.82031 0.386718,0.73047 0.382813,0.69141 0.429687,0.64843 0.382813,0.51563 0.382813,0.42969 0.433593,0.34765 0.382813,0.30078 0.382812,0.21485 0.382813,0.1289 0.335937,0.043 h 0.429688 l 0.382812,-0.1289 0.429688,-0.21485 0.433594,-0.30078 0.476562,-0.39062 0.527344,-0.47266 0.480468,-0.47266 0.527344,-0.47656 0.527344,-0.47266"
       id="path14275" />
    <path
       style="fill:none;stroke:#000000;stroke-width:1.41;stroke-linecap:round;stroke-linejoin:round;stroke-miterlimit:10;stroke-opacity:1"
       d="m 95.894531,235.21094 -0.09766,-0.30078 0.289063,-0.0859 0.382812,0.043 0.527344,0.34375 0.285156,0.25781 0.289062,0.34766 0.335938,0.38671 0.335938,0.47266 0.332031,0.51953 0.335937,0.51563 0.335938,0.5625 0.335937,0.60156 0.285157,0.64844 0.335946,0.60156 0.28906,0.5625 0.28515,0.51562 0.28907,0.51954 0.23828,0.51562 0.28906,0.42969 0.19141,0.43359 0.1914,0.34375 0.0977,0.30078 0.19141,0.47657 0.0937,0.34375 -0.23829,-0.25782 -0.1914,-0.30078 -0.19141,-0.39062 -0.1914,-0.42969 -0.24219,-0.51953 -0.28516,-0.5586 -0.28906,-0.64843 -0.28516,-0.73047 -0.33593,-0.73438 -0.335946,-0.77343 -0.289063,-0.77735 -0.285156,-0.86328 -0.289063,-0.86328 -0.238281,-0.85938 -0.238281,-0.86328 -0.191406,-0.77734 -0.191407,-0.73047 -0.144531,-0.64844 -0.09766,-0.64453 -0.04687,-0.5625 -0.04687,-0.51562 v -0.47657 l 0.04687,-0.38671 0.09375,-0.30079 0.195312,-0.47656 0.285157,-0.21484 0.429687,0.043 0.527344,0.17187 0.335937,0.21875 0.335938,0.21485 0.335939,0.30078 0.38281,0.34375 0.33594,0.34765 0.28516,0.38672 0.28906,0.42969 0.19141,0.39062 0.1914,0.42969 0.14453,0.38672 0.14454,0.39063 0.0937,0.85937 -0.0469,0.39063 -0.0469,0.42968 -0.0977,0.34375 -0.19141,0.39063 -0.1914,0.30078 -0.19141,0.34375 -0.23828,0.25781 -0.24219,0.26172 -0.52734,0.34375 -0.47656,0.17188 h -0.433602 l -0.382812,-0.25782 -0.382813,-0.38672 -0.144531,-0.30468 -0.140625,-0.34375 -0.05078,-0.42969"
       id="path14277" />
    <path
       style="fill:none;stroke:#000000;stroke-width:1.41;stroke-linecap:round;stroke-linejoin:round;stroke-miterlimit:10;stroke-opacity:1"
       d="m 105.66406,226.41797 0.0977,0.30078 0.23828,0.5625 0.19141,0.34375 0.14453,0.38672 0.1914,0.39062 0.14454,0.34375 0.14453,0.30078 0.14062,0.30079 0.19141,0.26171 0.24219,0.51563 0.14062,0.38672 0.0508,0.30469 -0.43359,0.17187 -0.42969,-0.0859 -0.52734,-0.0859 -0.52735,-0.043 -0.57422,0.1289 -0.42968,0.17188 -0.28907,0.25781 -0.14453,0.34375 v 0.43359 l 0.28907,0.42969 0.52734,0.34375 0.33594,0.0859 0.33203,0.043 h 0.38672 l 0.42968,-0.0859 0.48047,-0.12891 0.42969,-0.17187 0.42969,-0.21484 0.38281,-0.21485 0.38672,-0.25781"
       id="path14279" />
    <path
       style="fill:none;stroke:#000000;stroke-width:1.41;stroke-linecap:round;stroke-linejoin:round;stroke-miterlimit:10;stroke-opacity:1"
       d="m 112.75391,227.83984 h -0.33594 l -0.33594,0.12891 v 1.12109 l 0.19141,0.47657 0.28906,0.38671 0.33594,0.21485 0.33594,0.0859 0.28515,-0.12891 0.24219,-0.30078 0.14062,-0.39063 0.38282,0.4336 0.19531,0.38672 0.14062,0.51953 0.19141,0.60156 0.14453,0.69141 0.0977,0.77343 0.14062,0.82032 0.14453,0.86328 0.14454,0.85937 0.14453,0.90625 0.0937,0.90625 0.0508,0.90625 0.0469,0.90235 v 0.86328 l -0.0469,0.86328 -0.0508,0.82031 -0.14063,0.73047 -0.14453,0.64844 -0.24219,0.55859 -0.23828,0.51953 -0.23828,0.38672 -0.23828,0.25781 -0.24219,0.21485 -0.52734,0.043"
       id="path14281" />
    <path
       style="fill:none;stroke:#000000;stroke-width:1.41;stroke-linecap:round;stroke-linejoin:round;stroke-miterlimit:10;stroke-opacity:1"
       d="m 118.16797,232.15234 0.38281,-0.34765 0.47656,-0.38672 0.52735,-0.38672 0.28906,-0.25781 0.38281,-0.26172 0.38282,-0.30078 0.38281,-0.34375 0.38281,-0.39063 0.38281,-0.38672 0.33594,-0.47265 0.33594,-0.47657 0.28906,-0.47265 0.23828,-0.47266 0.14453,-0.43359 0.0469,-0.42969 v -0.38672 l -0.0469,-0.34765 -0.33593,-0.51563 -0.57422,-0.17187 -0.33594,0.043 -0.38281,0.17188 -0.4336,0.25781 -0.38281,0.34375 -0.42969,0.51953 -0.38281,0.60157 -0.33594,0.6914 -0.28906,0.77344 -0.19141,0.77734 -0.0937,0.77735 0.0469,0.6875 0.14453,0.6914 0.28906,0.64453 0.38282,0.60547 0.52734,0.51563 0.62109,0.43359 0.71875,0.30078 0.86328,0.21485 0.95704,0.0859 1.0039,-0.0859 1.05469,-0.17188 1.00781,-0.30078"
       id="path14283" />
    <path
       style="fill:none;stroke:#000000;stroke-width:1.41;stroke-linecap:round;stroke-linejoin:round;stroke-miterlimit:10;stroke-opacity:1"
       d="m 222.34766,206.71484 -0.28516,0.30469 V 209 l 0.0937,0.64844 0.0508,0.6875 0.14063,0.82031 0.0977,0.86328 0.14453,0.90625 0.19141,0.98828 0.19141,1.03516 0.57421,3.36328 0.28907,1.20703 0.28515,1.20703 0.28907,1.20703 0.47656,2.41407 0.24219,1.16406 0.1914,1.12109 0.14063,1.07813 0.19531,0.99218 0.14062,0.94922 0.0977,0.85938 0.0469,0.73437 0.0469,0.69141 0.0508,0.55859 v 0.51563 l 0.0469,0.47656 v 0.99219 l -0.33594,-0.39063 -0.14453,-0.34375 -0.14453,-0.42968 -0.19141,-0.51954"
       id="path14285" />
    <path
       style="fill:none;stroke:#000000;stroke-width:1.41;stroke-linecap:round;stroke-linejoin:round;stroke-miterlimit:10;stroke-opacity:1"
       d="m 219.47656,220.16797 -0.0977,0.30078 0.48046,0.17187 h 0.6211 l 0.38281,-0.043 0.52734,-0.0859 0.625,-0.12891 0.66797,-0.17187 0.71875,-0.17188 0.76563,-0.21875 2.58984,-0.77344 0.85938,-0.30468 0.86328,-0.30078 1.53125,-0.51563 0.67187,-0.21484 0.57422,-0.21875 0.4336,-0.12891"
       id="path14287" />
    <path
       style="fill:none;stroke:#000000;stroke-width:1.41;stroke-linecap:round;stroke-linejoin:round;stroke-miterlimit:10;stroke-opacity:1"
       d="m 240.40625,222.45312 -0.28516,-0.0859 -0.24218,-0.30469 -0.23829,-0.21484 0.0469,0.30078 0.28906,0.30468 0.38281,0.38672 0.38282,0.51563 0.1914,0.30469 0.24219,0.30078 0.19141,0.30078 0.1914,0.34375 0.19141,0.30469 0.0937,0.34375 0.0977,0.30078 0.0469,0.5625 -0.0469,0.47265 -0.19141,0.51563 -0.19141,0.26172 -0.28906,0.21484 -0.28906,0.25781 -0.28516,0.21485 -0.33594,0.17187 -0.28906,0.17578 -0.33203,0.0859 -0.28906,0.0859 h -0.33594 l -0.57422,0.043 -0.52734,0.0859 -0.38281,0.043 -0.33594,0.043 -0.0469,0.42969 0.0977,0.47656 0.28516,0.5586 0.23828,0.25781 0.24218,0.21484 0.33594,0.26172 0.38281,0.21484 0.42969,0.17188 0.48047,0.12891 0.52734,0.0859 0.57422,0.043 0.57422,-0.043 0.6211,-0.0859 0.57421,-0.12891 0.57813,-0.17188 0.52344,-0.17187 0.48047,-0.17188 0.42968,-0.21875 0.33594,-0.21484 0.24219,-0.25781 0.23828,-0.5586 0.0937,-0.30468 v -0.60157 l -0.0469,-0.34375"
       id="path14289" />
    <path
       style="fill:none;stroke:#000000;stroke-width:1.41;stroke-linecap:round;stroke-linejoin:round;stroke-miterlimit:10;stroke-opacity:1"
       d="m 247.21094,223.01172 0.42968,0.21484 0.0469,0.34766 0.0977,0.55859 0.0937,0.34375 0.0977,0.34766 0.14453,0.38672 0.14063,0.34375 0.1914,0.39062 0.19141,0.34375 0.19531,0.34375 0.14063,0.34375 0.1914,0.26172 0.28907,0.47266"
       id="path14291" />
    <path
       style="fill:none;stroke:#000000;stroke-width:1.41;stroke-linecap:round;stroke-linejoin:round;stroke-miterlimit:10;stroke-opacity:1"
       d="m 246.44141,218.3125 -0.23829,-0.21484 -0.52734,-0.42969 -0.28516,-0.17578 -0.43359,-0.21485 0.48047,0.12891"
       id="path14293" />
    <path
       style="fill:none;stroke:#000000;stroke-width:1.41;stroke-linecap:round;stroke-linejoin:round;stroke-miterlimit:10;stroke-opacity:1"
       d="m 254.05859,215.42578 -0.0937,-0.34766 -0.1914,-0.64453 -0.14453,-0.30078 -0.14454,-0.30469 -0.28906,-0.30078 -0.23828,0.30078 0.0469,0.4336 0.0977,0.60156 0.19141,0.73438 0.23828,0.86328 0.33594,0.94531 0.33593,0.99219 0.42969,0.99218 0.4336,1.03516 0.52734,0.99219 0.52344,0.99219 0.57812,0.94531 0.57422,0.90625 0.62109,0.86328 0.57422,0.73047 0.57422,0.64844 0.57813,0.51562 0.57422,0.39063"
       id="path14295" />
    <path
       style="fill:none;stroke:#000000;stroke-width:1.41;stroke-linecap:round;stroke-linejoin:round;stroke-miterlimit:10;stroke-opacity:1"
       d="m 286.19922,222.36719 -0.14453,-0.34766 -0.0937,0.47656 v 0.34375 l 0.0937,0.47266 0.0976,0.51953 0.14453,0.51563 0.19141,0.60546 0.19141,0.60157 0.23828,0.64843 0.28906,0.60157 0.28516,0.64843 0.28906,0.60157 0.23828,0.60547 0.28906,0.55859 0.23828,0.51953 0.19141,0.47266 0.23828,0.42968 0.24219,0.34766 0.19141,0.30078 0.28515,0.38672 v -0.34375 l -0.0937,-0.34375 -0.14453,-0.39062 -0.14453,-0.51563 -0.19141,-0.51562 -0.1914,-0.60547 -0.23828,-0.60157 -0.23829,-0.6914 -0.24218,-0.69141 -0.23828,-0.6875 -0.23829,-0.6914 -0.1914,-0.6875 -0.19531,-0.64844 -0.19141,-0.60156 -0.19141,-0.5625 -0.14062,-0.5586 -0.0977,-0.47656 -0.0469,-0.42969 v -0.99219 l 0.23828,-0.47265 0.38281,-0.39063 0.57422,-0.34375 0.33594,-0.1289 0.38281,-0.0859 0.43359,-0.0859 h 1.62891 l 0.38281,0.043 0.38281,0.12891 0.28516,0.1289 0.28906,0.17188 0.28516,0.21484 0.24219,0.21875 0.1914,0.25781 0.19141,0.47266 -0.0469,0.5625 -0.24218,0.55859 -0.19141,0.30079 -0.23828,0.30468 -0.28906,0.30078 -0.33203,0.30079 -0.38672,0.30078 -0.38282,0.21875 -0.42968,0.25781 -0.76563,0.42969 -0.38281,0.17187 -0.33594,0.17188 -0.33594,0.13281 -0.28906,0.0859 -0.47656,0.0859"
       id="path14297" />
    <path
       style="fill:none;stroke:#000000;stroke-width:1.41;stroke-linecap:round;stroke-linejoin:round;stroke-miterlimit:10;stroke-opacity:1"
       d="m 297.79297,217.23437 0.14062,0.34766 0.24219,0.51563 0.14453,0.38671 0.14063,0.4336 0.14453,0.42969 0.0976,0.47265 0.14063,0.47656 0.19141,0.51563 0.14453,0.5625 0.1914,0.51562 0.0977,0.5625 0.0937,0.51563 0.0508,0.47266 v 0.47656 l 0.0469,0.42969 v 1.07812 l -0.0469,0.30078 -0.33594,-0.21484 -0.48047,-0.30078 -0.52734,-0.30078 -0.28516,-0.12891 -0.33593,-0.0898 -0.33594,-0.0859 -0.33594,-0.043 h -0.95703 l -0.38281,0.0859 -0.0469,0.39062 0.0937,0.34375 0.33594,0.38672 0.52734,0.34766 0.28516,0.17187 0.38672,0.0859 0.76562,0.0859 h 0.47657 l 0.48047,-0.043 0.48046,-0.12891 0.47657,-0.17187"
       id="path14299" />
    <path
       style="fill:none;stroke:#000000;stroke-width:1.41;stroke-linecap:round;stroke-linejoin:round;stroke-miterlimit:10;stroke-opacity:1"
       d="m 307.60937,217.27734 h -0.57421 l -0.33594,0.043 -0.33203,0.0859 -0.33594,0.17578 -0.33594,0.17188 -0.28906,0.25781 -0.28516,0.30078 -0.24218,0.34375 -0.23829,0.34766 -0.0937,0.38671 -0.0976,0.42969 v 0.39063 l 0.0469,0.34375 0.14453,0.34375 0.19141,0.26172 0.28906,0.21484 0.33594,0.17187 0.38281,0.12891 0.42969,0.043 h 0.42969 l 0.43359,-0.12891 0.42969,-0.17187 0.48047,-0.21485 0.42969,-0.30468 0.43359,-0.25782 0.38281,-0.30078 0.38281,-0.25781 0.28516,-0.21875 0.38281,-0.30078 0.4336,0.12891 0.33593,0.51953 0.19141,0.42968 0.19141,0.51954 0.1914,0.60156 0.19141,0.6914 0.19141,0.6875 0.23828,0.69141 0.1914,0.73047 0.19141,0.73437 0.14453,0.77735 0.0977,0.73047 0.0469,0.6914 -0.0469,0.73047 -0.0977,0.69141 -0.14453,0.6914 -0.28516,0.64454 -0.38281,0.6914 -0.43359,0.64453 -0.47657,0.5625 -0.57812,0.5586 -0.62109,0.47656 -0.6211,0.42969 -0.625,0.38672 -0.57422,0.34765 -0.52734,0.25781 -0.42969,0.21485 -0.38281,0.1289 -0.28906,0.0859 -0.38282,0.043 v -0.55859"
       id="path14301" />
    <path
       style="fill:none;stroke:#000000;stroke-width:1.41;stroke-linecap:round;stroke-linejoin:round;stroke-miterlimit:10;stroke-opacity:1"
       d="m 319.25,220.21094 0.52734,-0.043 0.38282,-0.0859 0.43359,-0.0859 0.42969,-0.17578 0.42968,-0.1289 0.96094,-0.42969 0.47656,-0.21485 0.52735,-0.30468 0.48047,-0.34375 0.47656,-0.38672 0.43359,-0.38672 0.38282,-0.43359 0.33593,-0.38672 0.23828,-0.38672 0.14454,-0.39063 0.0469,-0.34375 -0.0469,-0.30078 -0.0977,-0.30469 -0.19141,-0.25781 -0.23828,-0.21484 -0.28906,-0.21485 -0.33594,-0.0859 -0.38281,-0.0859 h -0.42969 l -0.42969,0.0859 -0.43359,0.0859 -0.42969,0.21485 -0.43359,0.25781 -0.42969,0.34766 -0.38281,0.42968 -0.38281,0.47266 -0.33594,0.51953 -0.23828,0.51563 -0.19141,0.5625 -0.0976,0.51562 v 0.5625 l 0.0469,0.51563 0.14453,0.51562 0.24219,0.51953 0.28516,0.42969 0.33593,0.39063 0.42969,0.34375 0.48047,0.25781 0.52734,0.21484 0.52735,0.12891 0.52734,0.043 h 0.62109 l 0.57422,-0.12891 0.57422,-0.21484 0.57422,-0.30078"
       id="path14303" />
    <path
       style="fill:none;stroke:#000000;stroke-width:1.41;stroke-linecap:round;stroke-linejoin:round;stroke-miterlimit:10;stroke-opacity:1"
       d="m 330.98437,214.30469 -0.1914,-0.25782 -0.47656,0.0859 -0.4336,0.42969 -0.23828,0.30078 -0.23828,0.34766 -0.14453,0.38672 -0.14453,0.42968 -0.0469,0.39063 -0.0469,0.34375 0.0937,0.34375 0.0976,0.34375 0.23828,0.34765 0.28907,0.34375 0.38281,0.25782 0.42969,0.30078 0.48047,0.21875 0.47656,0.21484 0.96094,0.42969 0.47656,0.21484 0.43359,0.21875 0.42969,0.30078 0.33594,0.30079 0.28515,0.34375 0.24219,0.39062 0.14063,0.42969 0.0976,0.42969 v 0.43359 l -0.0469,0.47266 -0.0977,0.42968 -0.14453,0.47657 -0.14063,0.47265 -0.1914,0.39063 -0.14453,0.34375 -0.19141,0.25781 -0.33594,0.30078 -0.38281,0.12891"
       id="path14305" />
    <path
       style="fill:none;stroke:#000000;stroke-width:1.41;stroke-linecap:round;stroke-linejoin:round;stroke-miterlimit:10;stroke-opacity:1"
       d="m 243.28125,201.84375 -0.28906,-0.17188 -0.42969,-0.25781 -0.28516,-0.17187 -0.38672,-0.21485 -0.38281,-0.26172 -0.42969,-0.30078 -0.42968,-0.38672 -0.52735,-0.38671 -0.57422,-0.4336 -0.625,-0.42969 -0.71875,-0.51953 -0.76562,-0.55859 -0.8125,-0.64844 -0.96094,-0.6875 -1.10156,-0.77734 -1.14844,-0.86328 -1.24609,-0.94532 -1.2461,-1.03515 -2.67968,-2.07031 -1.34375,-1.03516 -1.33985,-0.99219 -1.29297,-0.98828 -1.19921,-0.94922 -1.10157,-0.90625 -0.95703,-0.86328 -0.91015,-0.81641 -0.8125,-0.77734 -0.76954,-0.73437 -0.66796,-0.6875 -0.57422,-0.64844 -0.52735,-0.51563 -0.43359,-0.51953 -0.38281,-0.38672 -0.33594,-0.38672 -0.23828,-0.25781 -0.23828,-0.26172 -0.33594,-0.30078 -0.23828,-0.25781 -0.38281,-0.043 -0.33594,-0.17187 -0.28906,-0.30469 -0.28516,-0.25781 -0.33594,-0.30079 -0.43359,-0.34375 -0.23828,-0.21875 -0.42969,-0.38671 -0.24219,-0.21485 -0.42969,-0.30078 -0.33593,-0.25781 -0.19141,-0.26172 -0.0469,-0.30078 -0.0469,0.30078 0.0469,0.43359 0.14453,0.5586 0.0937,0.34375 0.14453,0.47656 0.14453,0.47266 0.14453,0.51953 0.19141,0.51562 0.14062,0.5625 0.14453,0.47266 0.14453,0.51562 0.14454,0.4336 0.0937,0.42968 0.14453,0.38672 0.0469,0.39063 0.0977,0.34375 0.0469,0.34375 v 0.51953 l -0.0469,0.42969 v 0.30078 l -0.0469,-0.30078 v -2.62891 l -0.0508,-0.64844 -0.0469,-0.6875 -0.0469,-0.6914 -0.0977,-0.64453 -0.14454,-0.60547 -0.0937,-0.5586 -0.0977,-0.51953 -0.0937,-0.85937 v -0.64844 l 0.1914,-0.47266 0.38282,-0.30468 0.57422,-0.12891 h 1.00781 l 0.33594,0.0859 0.33203,0.17187 0.33593,0.17578 0.67188,0.51563 0.28516,0.30078 0.33593,0.34766 0.28907,0.34375 0.23828,0.38671 0.28906,0.34375 0.28516,0.34766 0.28906,0.25781 0.33594,0.21485 0.38281,0.1289 0.47656,0.043 0.57813,-0.0859"
       id="path14307" />
    <path
       style="fill:none;stroke:#000000;stroke-width:1.41;stroke-linecap:round;stroke-linejoin:round;stroke-miterlimit:10;stroke-opacity:1"
       d="m 321.11719,202.75 h -0.33203 l -0.28907,-0.0859 -0.33593,-0.17187 -0.14454,-0.30078 0.0508,-0.39063 0.33593,-0.60156 0.38282,-0.34375 0.47656,-0.4336 0.52734,-0.47265 0.625,-0.5625 0.71485,-0.64453 0.8164,-0.69141 0.91016,-0.77344 1.0039,-0.82031 1.05469,-0.86328 1.15235,-0.90625 1.19531,-0.98828 1.24609,-0.99219 1.2461,-1.07812 1.29296,-1.16407 2.67969,-2.32812 1.29688,-1.20703 1.33984,-1.16407 2.49219,-2.24218 1.14844,-1.07813 1.05468,-0.94922 0.95703,-0.90234 0.86329,-0.82031 0.76562,-0.77735 0.71875,-0.64453 0.66797,-0.64844 0.57812,-0.55859 0.57422,-0.5625 0.52735,-0.55859 0.52343,-0.5625 0.48047,-0.60157 0.52735,-0.5625 0.52734,-0.55859 0.52734,-0.5625 0.52735,-0.51562 0.52734,-0.47266 0.42969,-0.47656 0.38281,-0.38672 0.33594,-0.30078 0.28516,-0.26172 0.38281,-0.30078 0.19531,-0.25782 0.38281,-0.1289 0.33203,-0.25781 0.38672,-0.30469 0.23828,-0.21485 0.48047,-0.38671 0.42969,-0.34375 0.38281,-0.34766 0.33594,-0.21484 0.33594,-0.17188 0.33203,-0.25781 0.28906,-0.34766 0.33594,-0.30078 0.33594,-0.38672 0.33593,-0.30078 0.28516,-0.30469 0.23828,-0.30078 0.0508,-0.34375 -0.0508,-0.30078 -0.28515,-0.12891 -0.28907,-0.17578 -0.42968,-0.1289 h -0.48047 l -0.28516,0.0859 -0.33594,0.12891 -0.38281,0.17578 -0.48047,0.17188 -0.42969,0.21484 -0.48046,0.21484 -0.76563,0.34375 -0.33594,0.12891 -0.47656,0.17578 0.0469,0.34375 0.57421,0.17188 0.42969,-0.043 0.48047,-0.043 1.14844,-0.34375 0.625,-0.21484 0.52734,-0.17579 0.52344,-0.17187 0.48047,-0.12891 0.42969,-0.0859 0.67187,-0.0859 -0.14453,0.38672 -0.19141,0.26172 -0.1914,0.38671 -0.19141,0.47266 -0.23828,0.51953 -0.19141,0.5586 -0.1914,0.5625 -0.0977,0.55859 -0.0937,0.5625 v 0.60156 l 0.0937,0.60547 0.19141,0.55859 0.28906,0.5586 0.33594,0.47656 0.33203,0.42969"
       id="path14309" />
    <path
       style="fill:none;stroke:#000000;stroke-width:1.41;stroke-linecap:round;stroke-linejoin:round;stroke-miterlimit:10;stroke-opacity:1"
       d="m 72.710938,117.13672 -0.382813,0.043 -0.191406,-0.30469 h 0.332031 l 0.242188,-0.42969 0.238281,-0.42968 0.335937,-0.47657 0.144532,-0.30078 0.140624,-0.34375 0.191407,-0.34375 0.242187,-0.34765 0.285156,-0.38672 0.289063,-0.42969 0.382813,-0.43359 0.382812,-0.42969 0.382812,-0.4336 0.433594,-0.47265 0.476563,-0.47266 0.480469,-0.47656 0.527343,-0.51563 0.574219,-0.47656 0.574219,-0.51562 0.574219,-0.47266 0.574218,-0.47656 0.574219,-0.47266 0.527344,-0.43359 1.054687,-0.94531 0.574219,-0.4336 1.054687,-0.85937 0.574219,-0.4336 0.527344,-0.42968 0.574219,-0.42969 0.527344,-0.4336 0.574218,-0.38671 0.527344,-0.38672 0.574219,-0.39063 0.574219,-0.34375 0.578124,-0.38672 0.574219,-0.34765 0.574219,-0.38672 0.574219,-0.42969 0.621093,-0.390625 0.671876,-0.429687 0.71875,-0.472657 0.816406,-0.433593 0.8125,-0.515626 0.863281,-0.519531 0.859375,-0.558593 0.910156,-0.5625 0.960938,-0.558594 0.910156,-0.519532 0.957031,-0.515624 0.910159,-0.515626 0.91015,-0.476562 0.86329,-0.472656 0.91015,-0.390625 0.85938,-0.386719 1.82031,-0.773438 0.91016,-0.390624 0.96093,-0.386719 0.91016,-0.386719 0.95703,-0.390625 0.91016,-0.34375 0.95703,-0.386719 0.91015,-0.347656 0.95704,-0.34375 0.91015,-0.34375 0.91016,-0.304688 1.82031,-0.601562 0.91016,-0.257812 0.86328,-0.347657 0.91015,-0.300781 0.95704,-0.34375 0.95703,-0.386719 0.96093,-0.347656 1.00391,-0.34375 0.95703,-0.34375 1.00781,-0.347656 1.05469,-0.34375 1.10156,-0.34375 1.19532,-0.34375 1.19921,-0.304688 1.29297,-0.300781 1.29297,-0.34375 1.29297,-0.300781 1.33984,-0.347657 1.34375,-0.300781 1.33985,-0.300781 1.33984,-0.257812 1.39063,-0.261719 2.875,-0.601563 1.48437,-0.300781 1.53125,-0.304687 1.53516,-0.257813 1.57812,-0.300781 1.58203,-0.257813 1.62891,-0.21875 1.62891,-0.257812 1.67578,-0.214844 1.6289,-0.214844 3.35157,-0.429687 1.72656,-0.21875 1.72266,-0.171875 1.72656,-0.214844 1.72265,-0.171875 1.77344,-0.128906 1.72266,-0.08594 1.72656,-0.128906 1.76953,-0.08594 1.67969,-0.132812 1.72266,-0.128906 3.35156,-0.257813 1.72656,-0.128906 1.67578,-0.128906 1.72656,-0.128907 1.72266,-0.171874 1.77344,-0.175782 1.76953,-0.128906 1.77344,-0.171875 1.77343,-0.128906 1.82032,-0.128907 1.76953,-0.08594 3.54687,-0.171875 1.77344,-0.04297 h 5.17188 l 1.72265,-0.04297 H 213.25 l 1.67578,-0.04297 h 5.17188 l 1.77343,-0.04297 h 1.86719 l 1.86719,-0.04297 1.91797,-0.08594 1.91406,-0.08984 1.91797,-0.04297 1.96094,-0.08594 1.96484,-0.04297 2.01172,-0.04297 1.96484,-0.04297 h 1.96485 l 1.96484,-0.04297 h 5.65234 l 1.76953,0.04297 1.77344,0.04297 1.67578,0.08594 1.62891,0.08594 1.67578,0.132813 1.58203,0.128906 1.62891,0.171875 1.57812,0.171875 1.58203,0.128906 1.58204,0.171875 1.6289,0.08594 1.67578,0.08594 1.72266,0.08594 1.77344,0.04297 h 1.77343 l 1.86719,0.04297 1.86719,0.04687 h 1.82031 l 1.86719,0.04297 h 1.87109 l 1.86719,0.04297 1.82031,0.04297 1.86719,0.04297 3.64063,0.171875 1.72265,0.128907 1.72656,0.128906 5.02735,0.257812 1.58203,0.04297 1.58203,0.08594 1.53125,0.08594 1.53516,0.132812 1.48437,0.08594 1.48438,0.128906 1.4375,0.08594 1.38672,0.128906 1.34375,0.08594 1.29296,0.128906 1.2461,0.128906 1.29297,0.128906 1.19531,0.128906 1.19922,0.175782 1.19531,0.128906 1.19922,0.08594 1.19531,0.128906 1.19922,0.128906 1.14844,0.171875 1.15234,0.214844 1.14844,0.171875 1.05469,0.175781 1.05078,0.171875 1.00781,0.128906 1.00391,0.171875 0.96093,0.171875 0.95704,0.128906 0.91015,0.171876 0.91016,0.21875 0.86328,0.214843 0.91016,0.214844 0.8125,0.214844 0.86328,0.171875 0.76562,0.171875 0.76563,0.128906 0.71875,0.175781 0.71875,0.214844 0.67187,0.214844 0.6211,0.214844 0.625,0.214843 0.57421,0.214844 0.52735,0.175781 0.52734,0.214844 0.47656,0.171875 0.48047,0.171875 0.42969,0.171875 0.38281,0.171875 0.38282,0.132812 0.38281,0.171876 0.33594,0.128906 0.33593,0.171875 0.28907,0.171875 0.28515,0.171875 0.33594,0.171875 0.28906,0.21875 0.33594,0.171875 0.33203,0.171875 0.33594,0.171875 0.33594,0.214843 0.33593,0.171876 0.33594,0.214843 0.28516,0.175781 0.28906,0.128907 0.28516,0.171875 1.00781,0.515625 0.33594,0.214843 0.33593,0.261719 0.38282,0.257813 0.33593,0.257812 0.38282,0.257813 0.33203,0.214843 0.38672,0.261719 0.38281,0.214844 0.38281,0.257813 0.76563,0.429687 0.33593,0.21875 0.38282,0.214844 0.33593,0.171875 0.33594,0.214844 0.33203,0.257812 0.38281,0.261719 0.33594,0.300781 0.33594,0.257812 0.28906,0.300782 0.33594,0.304687 0.33203,0.300781 0.38672,0.300782 0.38281,0.34375 0.42969,0.304687 0.38281,0.34375 0.42969,0.300781 0.43359,0.34375 0.42969,0.304688 1.14844,0.902344 0.38672,0.304687 0.85937,0.601563 0.38281,0.300781 0.4336,0.304687 0.38281,0.300782 0.42969,0.34375 0.48047,0.300781 0.42968,0.347656 0.4336,0.300781 0.38281,0.257813 0.38281,0.300781 0.38282,0.261719 0.28515,0.257813 0.33594,0.257812 0.28906,0.257812 0.28516,0.261717 0.28906,0.25781 0.33594,0.25782 0.28515,0.21484 0.33594,0.25781 0.33594,0.26172 0.28906,0.21485 0.28516,0.25781 0.24219,0.25781 0.42968,0.39063 0.42969,0.38671 0.38281,0.34375 0.38282,0.30079 0.28906,0.21875 0.23828,0.25781 0.38281,0.17187 0.33594,0.17188 0.28906,0.17187 0.23828,0.21485 0.28907,0.21875 0.38281,0.25781 0.33594,0.34375 0.38281,0.30078 0.42969,0.30469 0.33593,0.21484 0.33594,0.30078 0.23828,0.21485 0.19141,0.30078 0.0976,0.30469 0.28516,-0.12891"
       id="path14311" />
    <path
       style="fill:none;stroke:#000000;stroke-width:1.41;stroke-linecap:round;stroke-linejoin:round;stroke-miterlimit:10;stroke-opacity:1"
       d="m 71.128906,118.08203 -0.04687,-0.42969 v -4.87109 l -0.04687,-0.30078 -0.144531,0.38672 0.09375,0.42969 0.335937,0.30468 0.191407,0.34375 0.191406,0.47266 0.242187,0.5625 0.285157,0.51562 0.09766,0.30469 0.191406,0.51563 0.140625,0.51562 0.242188,0.39063 0.285156,0.34375 0.242188,0.30078 -0.05078,-0.38672 0.289063,-0.34375 0.238281,-0.26172 0.289062,-0.17187 0.285157,-0.12891 0.335937,-0.0859 0.382813,-0.0859 0.433593,-0.0859 0.527344,-0.043 h 2.25"
       id="path14313" />
  </g>
</svg>
